<svg width="1745" height="1745" fill="none" xmlns="http://www.w3.org/2000/svg">
  <g filter="url(#filter0_d)">
    <circle cx="872.5" cy="872.5" r="762.5" fill="#FFF3C4"/>
  </g>
  <path fill-rule="evenodd" clip-rule="evenodd" d="M1372.86 969.472c8.96-4.679 17.72-9.764 26.33-15.056 6.07-3.629.7-12.771-5.52-9.468-3.18 1.69-6.35 3.396-9.53 5.076 2.5-2.156 4.82-4.503 6.9-7.062l-.14-.143c8.02-7.186-2.29-20.744-11.41-14.841-8.04 5.831-16.16 11.78-25.39 15.62-19.13 8.109-40.22 9.451-60.75 9.685-7.51-.564-14.69.737-21.98 2.188 2.86-11.464 10.01-20.121 13.81-31.224 2.8-11.209-13.39-18.845-19.12-8.07a246.58 246.58 0 00-4.06 8.013c-12.4 11.273-33.09 10.28-45.59 22.385-7.12 6.32-10.61 14.895-11.98 23.501-.94 5.844.51 11.702-3.02 16.878-17.08 24.166-44.08 62.356-57.78 88.946-9.71-63.19-35.63-141.344-62.4-199.122-8.85-18.478-18.98-36.534-32.28-52.196 1.51-5.224-3.81-14.496-7.19-11.641-10.42-12.72-28.82-16.013-43.621-22.337-19.978-8.542-36.554-26.299-44.702-46.481-10.469-38.432-36.241-43.314-71.984-41.615-34.207-.043-59.515 14.587-66.979 49.408-15.163 26.429-50.964 22.059-76.721 29.055-18.876 4.312-37.195 10.98-54.605 19.443-19.367-18.371-88.732 58.73-95.037 78.573 3.712.719 7.401 1.585 11.057 2.641 3.256.941 1.889 5.859-1.395 5.072-4.087-.982-8.199-1.658-12.331-2.127a12.5 12.5 0 00-.319 1.177c-.463-.032-.926-.071-1.39-.103a16.57 16.57 0 012.982 1.958c2.332 1.936-.703 5.672-3.181 4.13-2.334-1.747-5.391-1.471-8.191-2.057-.166 5.757-20.71-.684-23.901-2.592-14.183-1.774-28.773.13-42.014-6.71-17.617-3.71-35.366-7.813-52.785-12.538-4.612 1.798-8.946 8.231-5.283 12.952 2.06 2.148-.588 5.655-3.182 4.129-8.701-5.121-15.429-13.115-21.134-21.727-2.685-2.71-7.451-2.127-11.059-3.251-.482.867-.767 1.832-.762 2.823-15.303 2.519-4.387 19.233 3.306 24.44-4.081 2.658-4.236 7.861-3.879 12.207-.864 1.548-1.153 3.466-.4 5.201 2.877 6.631 9.101 12.215 13.833 17.588 5.225 5.934 9.884 11.9 16.241 16.709 24.233 18.472 53.476 28.8 83.477 32.838 10.652 1.637 25.974 4.141 32.57 13.148-1.619 10.69-4.59 20.945-7.285 31.365-3.77 13.84-3.514 28.32-3.563 42.43-.527-.42-1.539-.34-1.69.47-.877 5.85-1.529 11.83-5.083 16.74-3.116 9.14-5.189 18.88-6.354 28.48-4.666 45.51-5.781 92.36 4.741 137.15a162.268 162.268 0 0019.661 46.96c2.682 4.34 6.995 5.61 10.868 4.76 12.962 6.73 29.291 8.89 43.262 7.18 47.629-13.48 31.034 18.98 97.815 9.04 115.271-14.68 231.764 14.17 346.787-2.77 2.84 21.89 39.92 15.61 52.8 6.36 38.63-28.72 57.81-119.63 77.2-165.75 13.32-36.35 35.63-100.73 64.85-125.13 8.77-6.85 19.36-10.46 29.95-13.37 39.55-10.191 79.25-19.828 118.88-29.737 6.72-1.654 5.51-13.115-1.68-12.379-9.53.975-19.1 1.859-28.67 2.778z" fill="#EDB98A"/>
  <path fill-rule="evenodd" clip-rule="evenodd" d="M492.448 962.656c-2.678-.333-5.304-1.287-7.912-2.039a125.486 125.486 0 01-11.728-4.07c-7.929-3.176-15.622-6.932-22.834-11.526-11.649-7.431-21.942-16.953-29.705-28.418l-.533-.8c-4.432-6.751-12.607-21.741-3.44-26.866-5.908-4.936-11.492-13.802-11.177-20.646.447-9.68 12.314-9.548 18.45-5.444 4.017 2.687 7.027 6.45 10.047 10.153 3.343 4.113 6.914 8.034 10.625 11.806.985.998 1.979 1.976 2.991 2.938l1.017.957a13.123 13.123 0 01-.42-1.156c-2.048-6.38.394-14.685 6.774-17.608 3.905-1.79 7.96-.698 11.743.822l.58.237c5.094 2.108 10.249 3.973 15.553 5.47 21.617 6.1 44.18 7.115 66.332 10.161 8.533 1.181 17.224 2.668 25.713 4.856 3.238-13.749 11.177-26.929 19.789-37.773 41.239-51.874 109.252-69.018 171.47-80.116 5.672-1.007 10.372 6.502 13.671 4.726 6.258-3.361 11.763-8.122 16.594-13.295 10.302-11.036 17.61-24.015 26.195-36.312 4.245-6.074 14.012-.639 10.074 5.881l-1.929 3.187c-7.944 13.052-16.741 26.504-28.134 36.626-6.057 5.374-12.778 9.619-20.463 12.27-5.82 2.005-13.986 3.694-20.357 1.75l-.765-1.113c.253.372.508.744.765 1.114 16.629 24.094 37.494 44.487 59.479 63.733 22.191 19.415 46.131 36.801 70.215 53.801l2.007 1.415c39.235-28.618 72.379-65.946 95.633-108.594-4.874-.588-9.696-3.711-13.862-6.04-5.015-2.817-9.732-6.179-13.408-10.66-8.008-9.759-6.967-22.335-8.411-34.177-.088-.735.884-.919 1.33-.551 4.341 3.605 5.864 9.513 7.676 14.616 1.995 5.61 4.253 10.232 8.831 14.178 4.262 3.677 9.461 6.38 14.511 8.787 2.604 1.235 15.535 4.409 17.005 7.037 22.34-5.243 44.09 3.816 60.64 19.097 15.99 14.765 27.73 33.958 38.09 52.906 11.06 20.218 20.11 41.292 27.92 62.953 7.91 21.986 13.98 44.453 17.31 67.593 2.82 19.508 4.54 39.328 5.66 59.058l.14 2.46c16.52-25.93 33.46-51.59 50.74-77.026-3.93-10.494.42-21.207 7.78-29.311 8.16-8.971 19.44-13.137 30.23-17.986l1.42-.641c5.2-2.373 10.38-4.986 14.88-8.54 4.32-3.43 7.5-8.157 12.05-11.316 6.62-4.604 18.62-3.623 18.93 6.433.16 5.523-2.21 11.579-4.38 16.541-2.46 5.611-5.78 10.695-9.72 15.369-.18.218-.38.389-.58.526l-.15.095c5.44.902 10.93 1.628 16.52 1.882 11.28.516 22.68-.315 33.73-2.696 11.31-2.433 22.27-6.388 32.44-11.903 8.69-4.708 16.74-10.8 26.61-12.235.91-.14 1.83-.227 2.77-.28 1.58-.087 3.16 1.768 2.53 3.325-.34.859-.7 1.708-1.09 2.565-3.41 7.518-8.65 14.811-15.18 20.346l-.5.423a82.11 82.11 0 006.8-2.696c13.12-5.907 25.02-14.835 39.08-18.423a50.29 50.29 0 012.02-.481c4.35-.937 6.64 3.789 4.08 7.028a62.6 62.6 0 01-1.25 1.557c-6.27 7.789-13.2 15.019-20.83 21.513a163.344 163.344 0 01-8.06 6.433 163.24 163.24 0 01-3.5 2.564l-.58.411c1.38-.97 2.73-1.959 4.08-2.975 8.61-2.609 17.1-5.698 25.41-9.119 3.3-1.358 5.86 1.986 6.21 4.734 1.18 9.208-9.05 15.868-15.7 20.296-6.67 4.447-14.01 7.825-21.53 10.537-14.45 5.224-29.64 7.6-44.79 9.72l-7.37 1.03c-29.14 4.07-59.58 8.94-80.49 31.62-11.71 12.71-19.64 28.5-26.9 44.03-7.25 15.52-13.61 31.45-19.65 47.46-6.26 16.58-11.71 33.46-17.5 50.21-5.32 15.37-11.68 30.55-17.97 45.57l-1 2.37c-13.36 31.93-29.33 62-51.57 88.66-3.67 4.4-9.6-1.85-6.21-6.21 23.27-30 39.46-65.4 52.83-100.72 6.08-16.06 11.18-32.52 17.02-48.68l3.48-9.59c4.65-12.8 9.33-25.58 14.22-38.27 6.19-16.06 12.99-31.93 20.77-47.28l.82-1.62c7.62-14.81 16.67-29.4 29.13-40.61 22.42-20.18 52.25-25.021 81.1-28.856l9.07-1.195c12.2-1.621 24.43-3.41 36.29-6.671 6.84-1.872 13.53-4.271 19.81-7.579a82.328 82.328 0 007.31-4.332 201.117 201.117 0 01-20.53 4.866c-3.41.621-6.78 1.086-10.14 1.41-8.65.856-17.24.821-26.11.358-.75-.044-.99-1.225-.19-1.374 6.18-1.098 12.36-2.471 18.51-3.961l1.85-.45c.03-1.024.44-2.11 1.28-3.142 3.06-3.728 8.88-5.637 12.91-8.271 4.23-2.757 8.33-5.732 12.23-8.919 3.57-2.913 7-5.995 10.3-9.215l.99-.972c-.33.326-.66.649-.99.972-8.91 4.114-17.35 9.391-26.66 12.647-7.39 2.599-15.15 4.349-22.97 4.971l-.49.038-.48.032c-8.17.586-16.39.35-24.43 2.118-.9.201-1.18-1.007-.38-1.348 7.03-2.923 14.34-4.052 21.73-5.417.15-.578.56-1.095 1.26-1.427l1.89-.903c5.62-2.703 10.87-5.431 15.55-9.819a49.356 49.356 0 0010.15-13.434c-10.33 2.267-19.41 10.1-28.81 14.502a128.193 128.193 0 01-32.21 10.215l-1.27.217c-20.8 3.47-45.82 3.028-64.46-7.789-.59-.35-.16-1.145.45-1.05 5.29.867 10.52 1.891 15.75 2.801-1.02-.937-1.47-2.617-.29-3.965 4.7-5.387 8.41-11.544 10.79-18.281l.46-1.318c1.09-3.125 2.94-7.978 1.05-10.797-1.8-2.687-6.05-2.319-8.58-1.181-5.28 2.38-8.79 8.324-13.24 11.911-4.85 3.921-10.36 6.827-16 9.426l-1.2.542c-9.76 4.392-20.19 8.089-27.87 15.842-4.13 4.166-7.68 9.374-8.87 15.211-.55 2.678-.55 5.435.17 8.087.57 2.074 1.76 3.353 1.08 5.461-.9 2.722-4.05 5.978-5.68 8.402-1.89 2.802-3.77 5.61-5.66 8.42-3.75 5.617-7.49 11.257-11.23 16.887-7.47 11.27-14.87 22.59-22.2 33.95-2.39 3.7-4.76 7.41-7.14 11.11l-3.55 5.57-1.87 2.93-3.2 5.03c.11.46.1.96-.05 1.38-.54 1.56-1.56 2.62-2.83 3.39l-.23.13c-18.68 29.52-37.06 59.24-55.62 88.83-.99 9.03-1.92 18.07-2.72 27.11-1.83 20.46-3.08 40.98-3.48 61.52-.2 9.94.6 19.94 1.03 29.88.21 4.74.5 9.47.87 14.21l.28 3.35c.37 4.62.58 9.19-1.08 13.59-1.47 3.86-5.95 4.72-8.6 1.78-34.6-1.39-69.22-2.45-103.848-3.1-61.973-1.19-123.973-1.01-185.955.19-31.131.6-62.271 1.45-93.393 2.5-15.334.51-30.677 1.23-46.019 1.44-8.266.11-21.275-2.9-21.942-12.2l-.017-.28c-1.033.28-2.1.5-3.194.67-.487.07-.955.05-1.387-.05l-.215-.05c-12.322 3.75-27.908-1.61-39.617-4.73l-.966-.26c-11.177-2.91-20.156-7.08-27.482-16.34-12.822-16.21-17.198-37.99-19.473-58.06-2.136-18.88-2.258-38.12.341-56.97-1.531-15.36-.035-31.21 1.707-46.48.857-7.56 1.864-15.1 3.072-22.61.674-4.19 1.558-8.34 2.459-12.48.36-1.66.66-3.44 1.116-5.16l.206-.73c-1.401.18-2.932-.12-4.411-.94-3.519-1.93-4.543-5.84-4.604-9.59-.193-11.29 1.155-22.9 2.345-34.12 1.2-11.21 2.845-22.45 4.998-33.52l.557-2.85c1.631-8.274 3.498-16.817 6.786-24.593-12.349-2.1-24.663-4.332-36.645-8.131-5.846-1.864-11.605-4.183-17.101-7.01zM1137 1080.15l-.56.15c-4.93 1.38-9.92 2.56-14.89 3.82-8.6 2.16-17 4.57-24.99 8.33-1.67 21.13-4.16 42.19-6.51 63.26l-.47 4.21c3.62-6.72 7.33-13.39 11.21-19.98 11.8-20.09 23.88-40.02 36.21-59.79zm-593.467 2.09c.027 2.52-.498 5.12-.779 7.54-.455 3.92-.822 7.86-1.286 11.78-.945 7.88-1.751 15.76-2.337 23.67-.376 5.06-.621 10.12-.84 15.19 4.962-18.55 11.535-36.69 17.784-54.86-1.044-.11-2.112-.36-3.214-.66l-1.854-.5c-1.093-.28-4.64-1.15-7.474-2.16zm609.097-17.26l.04.83c.13 2.95-1.64 4.61-3.78 5.04 1.24-1.96 2.49-3.92 3.74-5.87zM584.799 925.189c5.225.463 10.345 1.575 15.229 3.501l.471.184c3.612 1.394 8.894 3.146 10.075 7.001.333 1.094-.56 1.995-1.584 2.083-3.921.315-8.542-3.887-12.174-5.305-4.044-1.575-8.28-2.748-12.568-3.369-9.636-1.409-19.683-.341-28.751 3.169-.534.21-.866-.64-.385-.894 9.137-4.971 19.299-7.289 29.687-6.37zm-110.722 25.03a81.376 81.376 0 01-1.803-1.653c-4.693-4.439-8.848-9.62-11.924-15.313l-.81-1.541c-2.506-4.851-5.583-11.763.306-15.259 3.518-2.09 7.754-1.566 11.675-.297.254.079.508.167.762.254 1.75.613 3.439 1.348 4.944 2.048 6.538 3.002 12.306 7.369 18.345 11.221 6.543 4.174 13.004 6.844 20.556 8.406l.711.144c7.09 1.401 14.774 2.301 19.719 8.13 1.243 1.472.105 4.228-2.039 3.501-13.671-4.611-28.138-5.627-40.689-13.198-5.199-3.133-10.117-6.729-15.43-9.697-2.818-1.577-5.728-2.955-8.828-3.9l-1.694-.5c-.993-.29-2.177-.576-2.973-.291-1.517.526-1.033 1.337-.564 2.753l.047.144c3.685 11.396 14.187 20.934 23.92 27.245a88.27 88.27 0 006.844 4.018c15.758 8.399 33.391 12.308 50.709 16.949 0 0 10.013 2.795 13.33 3.845 3.693-.307 7.903.998 10.686 2.556a19.312 19.312 0 016.529 5.934s1.584 1.321 1.873 3.369a22.413 22.413 0 011.672 6.083c.157 1.252-.158 2.214-.753 2.896 1.79 27.474-5.631 54.794-13.998 80.904l-.829 2.58-.533 1.63c-9.023 27.68-19.377 55.17-23.998 84.03-3.089 19.28-2.993 39.23-.726 58.6l.159 1.34c2.234 18.31 6.531 38.85 18.176 53.59 5.94 7.52 12.977 10.87 21.974 13.29l.493.13c8.139 2.14 16.541 5.18 24.935 6.1 7.789.85 14.318-2.05 21.328-4.76l.009-.01c14.765-13.07 21.469-32.09 26.423-51.3 12.839-49.69 11.246-101.28 3.964-151.7-3.798-26.34-8.962-52.46-14.108-78.56-2.573-13.05-5.348-26.077-7.649-39.17l-1.368-7.706c-.754-4.281-1.483-8.565-2.107-12.87-.84-5.785-1.094-11.474-1.383-17.294-7.072-11.719-17.338-21.373-29.232-28.296-8.516-4.962-17.53-8.402-26.834-10.896-26.597-7.168-55.593-6.66-82.357-12.174-8.991-1.85-17.525-4.597-26.056-7.889l-1.163-.452c-3.912-1.523-7.903-2.372-9.846 2.241-1.383 3.282-.56 6.695 1.514 9.452 5.085 6.757 15.308 9.89 23.001 12.323 4.63 1.47 9.356 2.634 14.134 3.501 4.779.866 9.575 1.085 14.161 2.774 1.768.648 2.118 3.457 0 3.955-5.811 1.358-11.658.194-17.434-.935a121.735 121.735 0 01-18.668-5.278c-1.12-.413-2.28-.848-3.461-1.311l-.889-.352c.919.666 1.838 1.322 2.766 1.979.245.174.096.638-.228.524-14.281-5.328-27.276-14.941-37.343-26.315l-.501-.571c-3.544-4.061-11.623-16.349-18.432-12.927-6.394 3.209 4.506 15.582 8.648 20.64l.481.593c4.709.123 9.268 3.054 13.084 5.417 6.626 4.105 13.548 7.641 20.603 10.949 14.02 6.59 28.908 11.238 42.78 18.16.184.097.044.333-.131.307-8.831-1.41-17.566-3.659-26.099-6.45l-.381-.119-.381-.127c-5.33-1.75-10.59-3.727-15.762-5.838-5.75-2.344-11.369-4.979-16.822-7.963-4.936-2.696-10.415-7.553-16.138-8.271a7.41 7.41 0 00-1.628-.044c-6.573.551-1.138 11.439.7 14.695 3.002 5.347 6.625 10.283 10.783 14.791 8.428 9.154 18.641 16.41 29.695 22.055 3.772 1.925 7.632 3.623 11.553 5.181z" fill="#000"/>
  <path fill-rule="evenodd" clip-rule="evenodd" d="M1032.51 423.435c-1.94-4.905-5.38-11.071-11.12-11.317-4.45-13.588-15.5-27.426-30.868-27.058-45.115-46.136-101.912-43.961-161.295-34.194-31.329 5.81-63.14 17.188-86.507 39.64-27.985 26.434-38.882 72.556-16.967 105.981-18.941 10.15-19.308 34.236-11.208 51.616-9.737 6.733-10.328 23.075.635 28.211-.583 2.388-.17 4.856.941 6.977-5.436 4.525-12.511 7.867-18.36 10.741-2.585 1.27-4.077 3.344-4.696 5.682-19.206 12.599-67.096 43.391-66.525 67.897-.282 12.785 9.202 21.2 20.727 24.55-6.858 13.708-12.062 29.72-5.498 44.508 1.814 4.468 15.408 17.599 16.092 17.841 1.197 1.026 20.699-7.928 30.177-12.495 1.838 11.956 14.622 18.22 25.642 14.123 10.449-3.15 16.872-11.996 23.463-20.043 8.747 19.083 34.485 19.302 51.119 11.075 14.939-6.901 26.295-19.549 32.621-34.791 33.592 16.444 72.894 21.238 109.39 14.669 2.342 4.145 7.527 6.929 12.145 5.326 19.407-5.834 40.865-6.161 57.315-19.528 34.287-24.612 37.177-69.986 34.787-108.665-2.12-38.564-.27-77.449-7.28-115.597 3.05-11.232 8.11-21.161 12.79-31.712 5.09-11.065 4.98-27.512-7.52-33.437z" fill="#EDB98A"/>
  <path fill-rule="evenodd" clip-rule="evenodd" d="M876.843 346.887l1.333.005c2.204.015 4.404.058 6.598.13 11.596.382 23.69 1.886 37.307 4.462l2.07.397c3.387.663 6.421 1.329 11.26 2.459l9.604 2.263c4.89 1.14 8.489 1.928 11.809 2.562l.435.082s25.593 12.267 33.858 20.337l.825.812.351.351 3.594.113.035.454.03.005c3.568.555 6.798 2.403 9.798 5.28l.32.312.31.309c2.34 2.379 4.2 4.913 6.77 8.931l.58.917 1.05 1.658.84 1.33c.55.871 1.08 1.732 1.59 2.585l.5.85.36.626 9.28 5.412c1.33.78 2.55 1.789 3.66 2.998l.31.334.29.345 2.53 3.008-.51.53.25.324.44.605.43.613.42.62.18.273.27.589.13.294.11.243.32.163.64 1.162c3.35 6.036 5.15 12.889 5.27 19.932.08 4.858-.52 9.27-1.94 13.527-.98 2.942-2.3 5.255-4.58 8.439l-1.81 2.472-.36.51-.44.621-.21.294c-2.93 4.246-27.98 12.281-43.378 12.669l-.463.01-.593.005a48.516 48.516 0 01-4.257-.16c-5.923-.496-11.46-1.742-17.893-3.78l-1.335-.431-7.088-2.381c-.225-.075-.407-.134-.533-.175l-.648-.202c-1.56-.479-2.695-.754-3.468-.854l-.157-.019-.017.293-.005.277.001.224c.045 3.262-1.936 5.64-5.009 7.156-1.957.965-4.478 1.654-7.644 2.171l-.505.081c-5.173.799-11.342 1.14-21.663 1.374-.393.009-.789.004-1.189-.014-2.216-.102-3.958-.479-7.195-1.409l-1.531-.439-.829-.229c-1.54-.416-2.397-.582-3.208-.628l-.235-.01-.234-.004c-.973-.001-1.675.216-2.367.743l-.354.284-4.758 3.986c-.62.515-1.175.973-1.583 1.297l-.165.131c-6.53 5.12-12.757 8.045-20.093 8.323l-.491.015-.511.006c-.372.001-.746-.006-1.121-.02-3.089-.118-6.296-1.263-10.674-3.471l-.908-.464-.635-.331c-.324-.171-.662-.35-1.029-.547l-3.267-1.748-1.669-.872c-1.995-1.025-3.107-1.52-3.855-1.724l-.122-.033-.07.068c-1.733 1.692-3.219 3.82-4.819 6.759l-.241.447-.35.666-2.272 4.523-.43.841c-1.687 3.265-3.021 5.352-4.767 7.183-2.534 2.657-5.604 4.199-9.364 4.446l-.378.021-.448.011c-1.772.017-3.648-.255-5.683-.82l-.472-.136-.461-.141c-3.031-.957-7.824-.361-11.629 1.659-4.134 2.193-6.41 5.541-6.309 9.818.051 2.125.295 4.403.725 6.872l.121.678c.565 3.052 1.329 6.114 2.507 10.199l2.533 8.545.286.997.287 1.026a80.145 80.145 0 011.009 4.021c1.034 4.687 1.207 8.207.17 11.205-4.569 13.221-12.497 20.244-21.523 20.541l-.312.007-.386.001c-6.933-.075-13.217-4.593-13.141-10.446a4.786 4.786 0 01.328-1.701l.092-.218.045-.093-.072-.176c-2.131-5.101-7.059-8.825-12.847-9.555l-.328-.038-.324-.031a17.31 17.31 0 00-.936-.057l-.294-.008-.352-.003c-7.713.012-15.345 5.147-21.349 13.546a46.696 46.696 0 00-3.458 5.684l-.343.677-1.67 3.415-1.127 3.303c-6.213 18.185-3.067 37.216 9.059 47.054l.37.295c4.369 3.426 9.507 5.508 14.992 6.069.631.064 1.266.105 1.877.121l.454.008.521-.001c1.787-.024 3.496-.246 5.032-.661 1.253-.338 2.124-.748 2.731-1.271.159-.137.288-.262.398-.386l.093-.111.035-.048 8.288 1.229c1.41 8.948 5.482 18.22 12.106 28.853l.418.666.728 1.147.741 1.148c7.794 11.989 16.488 22.084 26.043 29.83l.668.537.895.71.822.644c1.597 1.239 2.927 2.204 4.259 3.065l.333.213 3.142 1.991-1.459 3.422c-3.403 7.984-8.1 15.242-13.89 21.422l-.546.576-4.024 4.15-3.095-3.94c-.023-.03-.092-.068-.175-.083l-.056-.007h-.032l-.042.004-.049.014-.051.022c-2.317 1.256-3.589 2.216-5.417 4.096l-.265.275-.309.325-.425.443c-1.9 1.946-3.93 3.603-6.142 4.983-5.11 3.184-10.782 4.954-16.655 5.114l-.551.01h-.555a29.68 29.68 0 01-.598-.011c-12.255-.339-23.235-8.19-28.633-19.696-.214-.457-.411-.606-.774-.636l-.104-.005-.129-.002c-.9.006-2.003.542-2.618 1.261l-.11.137-2.066 2.776-.792 1.048c-7.369 9.674-13.419 14.966-21.546 16.573a13.52 13.52 0 01-2.035.235l-.436.018h-.255c-3.495.01-7.523-1.003-10.662-2.786-4.152-2.358-6.72-5.985-6.395-10.48l.025-.288.058-.481c.271-2.399-1.65-3.703-3.12-2.525l-.099.084-.122.11c-6.054 5.678-13.018 10.034-20.519 12.723l-.663.233-.985.336c-4.73 1.596-8.066 2.388-11.578 2.45-3.04.052-5.567-1.044-7.395-3.152-1.219-1.406-1.964-2.968-2.708-5.247l-.124-.387-.272-.887-.168-.576c-2.176-7.657-2.223-15.844-.515-24.878 1.276-6.747 3.308-13.266 6.724-22.403l.664-1.762 1.368-3.593c.138-.361-.684-1.619-1.193-1.761l-.06-.011-.464.05c-.326.031-.654.052-.99.065l-.511.013h-.336c-11.097-.114-19.573-10.996-19.494-22.524.085-10.798 5.516-20.083 15.885-31.105l.901-.949.974-1.01.963-.985c9.214-9.381 18.633-17.57 28.442-24.594l.812-.579.904-.638c3.304-2.317 6.515-4.418 10.959-7.18l2.616-1.616 10.604-12.512a71.9 71.9 0 00.752-.432l.135-4.34 10.216.211c-2.593-1.33-4.741-2.944-6.485-5.012-5.799-6.876-5.071-16.427 1.979-21.121l.249-.162 2.972-1.835 2.432 2.134c2.118 1.858 4.366 3.091 6.709 3.659l.37.084 1.834.389.356.578.207-.3a.342.342 0 00-.017-.088l-.018-.042-.039-.06-.231-.284-.255-.305c-.815-.958-1.731-1.889-3.393-3.49l-1.167-1.121-.908-.883c-2.382-2.34-3.651-3.79-5-5.803-3.357-5.008-5.253-10.655-5.332-16.391-.165-11.927 7.253-23.203 18.247-28.35.384-.18.668-1.461.207-2.308-10.644-19.53-13.598-42.94-8.251-64.717 4.989-20.318 17.401-38.253 35.171-51.991 30.504-23.585 72.821-35.747 117.718-36.166l1.362-.009h1.306z" fill="#ECDCBF"/>
  <path fill-rule="evenodd" clip-rule="evenodd" d="M713.713 587.128c2.021-.508 3.106 2.208 1.391 3.299-10.891 6.928-22.142 13.114-32.663 20.652-10.007 7.165-19.249 15.327-27.868 24.102l-.955.978c-7.792 8.016-16.422 18.214-16.509 30.039-.068 9.191 7.019 19.223 16.906 18.016 3.725-.455 7.149 4.271 5.849 7.678l-1.367 3.591c-5.502 14.533-11.099 30.999-6.753 46.288l.159.546c1.051 3.501 2.159 6.595 6.223 6.525 3.771-.067 7.696-1.339 11.226-2.552 7.327-2.52 13.966-6.722 19.601-12.007 4.985-4.673 11.354.075 10.683 6.015l-.024.19c-.918 6.665 9.7 9.76 14.528 8.807 9.532-1.885 16.328-11.435 21.741-18.716 2.602-3.499 8.922-4.876 11.208 0 4.53 9.658 13.868 16.876 24.791 17.179 5.674.157 11.118-1.458 15.924-4.453 1.961-1.223 3.716-2.677 5.324-4.326l.4-.416c2.38-2.523 4.023-3.865 7.063-5.513 2.996-1.623 6.872.39 6.853 3.932-.024 4.588-1.369 7.638-4.532 10.965-2.618 2.756-5.729 5.175-8.998 7.109-6.571 3.882-14.384 6.067-22.034 5.814-12.058-.399-23.568-6.41-31.029-15.757-7.618 9.109-17.068 17.477-29.348 17.252-9.193-.168-17.76-4.953-21.865-12.368-5.795 3.995-12.155 7.119-18.959 9.159l-.606.179c-9.631 2.803-20.714 3.917-26.913-5.644-5.82-8.976-6.254-21.407-4.921-31.667 1.192-9.165 4.012-17.869 7.25-26.454-9.218-2.752-16.373-11.411-18.83-20.744-3.718-14.113 3.494-27.801 12.411-38.288 9.686-11.391 21.877-21.026 34.159-29.46 12.249-8.41 25.971-16.313 40.484-19.95zm314.957-110.392c.03-.392.67-.53.73-.099 4.23 30.7 6.68 61.339 8.71 92.25a2946.18 2946.18 0 003.47 46.946c1.23 14.998 3.27 30.396 2.81 45.455-.73 23.582-12.18 42.756-30.95 56.554-17.995 13.224-40.315 19.762-62.213 22.524-12.718 1.604-25.612 1.681-38.344.174-6.612-.783-13.216-1.825-19.693-3.389l-2.8-.701c-5.101-1.302-10.796-3.07-11.523-9.112-.352-2.925 1.202-5.084 3.712-6.552 3.272-1.915 7.024-.788 10.397.085 5.682 1.47 11.425 2.732 17.233 3.605 12.475 1.876 25.298 1.987 37.836.688 21.091-2.186 43.339-9.027 59.605-23.154 7.06-6.139 13.21-13.619 16.44-22.506 4.16-11.425 3.54-23.889 3.4-35.853-.32-27.818-.04-55.637-.42-83.458-.39-27.906-.05-55.592 1.6-83.457zM816.581 346.728c24.644-6.355 49.655-8.007 74.97-6.094 23.873 1.803 51.068 7.145 70.566 21.828.946.712.38 2.061-.791 1.875-13.035-2.078-25.742-5.857-38.721-8.358-12.484-2.405-25.193-4.21-37.904-4.629-42.992-1.417-90.83 8.325-125.497 35.129-16.256 12.567-28.661 29.465-33.598 49.571-5.063 20.623-2.324 42.925 7.844 61.58 1.464 2.686.86 6.935-2.194 8.365-9.269 4.339-15.871 13.953-15.727 24.327.069 5.031 1.804 9.856 4.591 14.015 2.948 4.398 7.435 7.475 10.732 11.583 1.298 1.617 1.348 3.844.32 5.334 1.928.845 4.007 1.298 5.905 2.296 1.608.846 1.654 3.488 0 4.321-4.184 2.107-8.707-.129-11.53-3.526a16.403 16.403 0 01-1.338-1.881c-3.381-.717-6.411-2.414-9.057-4.735-5.041 3.018-5.732 9.738-1.401 14.873 2.211 2.621 5.353 4.239 8.529 5.403l.381.137c3.09 1.098 5.921 1.71 7.929 4.183 1.324-2.761 2.844-5.363 4.538-7.734 6.161-8.618 15.631-16.264 26.868-15.293 8.802.759 16.427 7.06 18.231 15.755.133.643-.837 1.145-1.126.474-4.222-9.847-17.584-10.209-25.543-5.077-9.361 6.035-14.476 17.409-16.529 28.001-2.02 10.434-.852 23.125 6.957 31.061 3.196 3.248 7.543 5.494 12.08 6.086 2.218.29 4.174.004 6.295-.423l1.406-.293c.975-.202 1.944-.365 2.967-.274l1.524.205.866.405c.75.337.682.245-.204-.278 2.589-.212 3.927 1.701 4.069 3.799a.892.892 0 01.228.191c9.826 12.023 17.12 25.844 27.547 37.473l3.052 3.407c7.846 8.729 16.804 18.191 27.463 22.719l1.269.525c3.101 1.31 6.215 3.103 6.61 6.841.355 3.348-2.285 5.868-5.328 6.65-6.93 1.777-14.83-4.382-19.905-8.422-10.914-8.687-20.086-19.76-27.661-31.411l-.749-1.16c-6.227-9.725-12.079-20.816-13.897-32.358l-.328.532c-.025.038-.044.067-.057.084a7.94 7.94 0 01-1.254 1.337c-1.274 1.1-2.828 1.743-4.443 2.178-3.031.819-6.354.98-9.47.661-6.329-.647-12.244-3.055-17.247-6.978-15.232-11.945-17.031-34.174-10.87-52.208-5.055 1.207-10.813-2.195-14.76-5.11-4.527-3.345-8.26-8.174-9.151-13.854-.886-5.636 2.707-13.1 8.037-15.275-5.53-6.64-8.75-16.063-9.082-23.608-.578-13.125 6.395-25.53 17.1-32.691-10.067-21.575-12.007-46.605-5.228-69.513 13.451-45.457 58.51-70.877 101.716-82.021zm-38.352 345.378l.126-.399c1.072-3.516 2.457-10.509 7.709-7.846 5.017 2.542 1.814 10.068.059 13.732-2.099 4.384-5.725 7.898-10.595 8.84-3.961.766-8.311-.218-11.082-3.278-.808-.892-1.264-1.871-1.742-2.951-.187-.42-.271-.708-.306-.895-.045.206-.175.512-.506.872-2.21 2.416-4.299 5.228-5.903 8.086-.38.675-1.577.202-1.274-.538 1.868-4.57 1.554-11.637 5.719-14.943 3.672-2.914 7.121-.621 9.063 2.773l.099.176c2.838 5.154 7.361.259 8.633-3.629zm-39.935-16.514l.384-.532c3.925-5.365 10.545-11.819 17.169-6.829 2.107 1.587 2.185 4.235 0 5.81l-.826.59c-2.894 2.051-5.776 3.989-7.901 6.931-2.31 3.199-4.384 6.586-7.489 9.095-5.492 4.438-14.368 5.313-19.133-.669l-.469-.594a18.396 18.396 0 01-1.227-1.748l-.29.4-.079.115-.066.102c-1.959 3.13-4.433 5.707-7.515 7.741-5.857 3.864-12.457 4.401-19.083 2.356-.649-.201-.474-1.07.153-1.128 7.852-.733 15.502-6.311 18.695-13.494l.361-.806c1.292-2.857 2.74-5.573 5.933-6.695 3.108-1.092 6.371.062 8.502 2.413 1.782 1.964 2.24 5.87 5.455 5.009 3.52-.943 5.502-5.352 7.426-8.067zm-22.488-47.719c1.739-1.321 4.462.096 4.941 2.011 2.17 8.67-6.841 18.887-15.501 19.155-2.229.068-4.373-.471-6.348-1.503-1.531-.799-3.344-2.844-5.025-3.183-2.171-.436-4.095 2.455-5.624 3.94-1.897 1.842-3.773 3.552-5.898 5.122-.849.628-2.166-.426-1.807-1.39l.718-1.915c2.602-6.82 7.084-16.775 15.47-13.945 4.109 1.386 7.202 6.062 11.529 2.359 3.465-2.964 3.788-7.797 7.545-10.651zm37.002-34.902c7.819-8.975 26.197-4.235 29.682 6.684.77 2.411-.033 5.545-1.917 7.252-2.481 2.248-6.02 2.929-9.033 1.165-2.592-1.516-3.656-3.998-5.562-6.128-2.794-3.12-6.595-4.852-10.512-6.093a11.277 11.277 0 00-2.708 2.007c-.418.417-1.208-.155-.837-.647a11.248 11.248 0 011.821-1.878l-.337-.099c-1.031-.287-1.254-1.507-.597-2.263zm50.812-99.086c1.753.002 3.794 1.648 3.57 3.569l-.068.533c-.504 3.657-1.679 5.728-5.34 7.428-3.106 1.439-6.369 2.235-9.774 2.55a24.518 24.518 0 01-4.034.024l-.291 1.678c-.578 3.358-1.113 6.718-1.213 10.14-.187 6.345 2.18 11.573 4.719 17.238 4.874 10.88 5.422 21.741.116 32.606-.777 1.589-2.974 2.884-4.748 2.723-2.299-.208-3.409-.873-4.747-2.723-1.123-1.553-.866-3.748-.088-5.371l.088-.178c2.674-5.181 3.517-11.033 2.152-16.727-1.283-5.352-4.19-10.162-5.488-15.498-2.114-8.69.137-17.311 4.538-24.767-3.321-.957-6.393-2.662-8.443-5.262l.009-.003c-.783-.836-.356-2.582 1.017-2.477l1.553.125c4.443.371 8.532.758 13.024-.481 2.303-.635 4.291-1.694 6.267-2.977l.424-.278c2.473-1.644 3.845-1.876 6.757-1.872zm10.632-64.234c11.136-.633 20.644 6.716 25.266 16.499 5.02 10.621 2.913 22.808-1.518 33.258l-1.259 2.924c-2.203 5.068-5.096 11.094-9.609 13.813-5.07 3.054-9.452-.488-7.957-6.118.891-3.353 3.302-5.939 5.253-8.707 1.82-2.584 3.519-5.259 5.009-8.049 2.918-5.472 5.096-11.569 5.073-17.838-.042-11.442-7.602-24.555-20.258-24.387-.904.01-.889-1.345 0-1.395zm56.322-18.463c-.694-.527-.073-1.699.703-1.205 12.914 8.213 22.556 23.641 24.497 38.797 1.077 8.409.255 17.395-3.327 25.156-2.054 4.453-5.579 8.704-10.508 9.924-4.532 1.122-9.203-1.466-10.61-5.89-.545-1.716.393-3.511 1.81-4.448 4.595-3.038 8.295-6.872 10.459-12.028 2.252-5.362 3.15-11.052 3.177-16.835.067-13.544-5.339-25.216-16.201-33.471zm157.746 5.87c-.6-.663.16-1.64.95-1.225 9.33 4.91 15.27 14.315 16.96 24.615 1.67 10.085-.57 23.813-8.38 31.106-4.4 4.117-12.29-1.358-8.63-6.661 2.58-3.74 5.37-6.82 6.85-11.238 1.32-3.943 1.79-7.919 1.71-12.063-.15-9.039-3.38-17.795-9.46-24.534zM914.18 404.43c15.95-.76 25.617 17.449 27.831 31.021 1.367 8.385.34 17.022-4.29 24.295l-.274.423c-3.82 5.81-10.766 12.5-18.249 9.748-3.167-1.163-4.01-4.556-1.883-7.13 3.256-3.94 8.289-5.546 11.35-9.753 3.434-4.718 4.56-10.63 4.361-16.367l-.027-.634c-.532-10.555-5.566-30.812-18.819-30.454-.743.019-.735-1.115 0-1.149zm49.892-3.025c15.429-1.972 24.824 16.178 27.722 28.681 1.81 7.817 2.205 16.536-.11 24.294l-.172.553c-1.885 5.79-7.444 15.71-14.702 12.751-1.988-.81-4.018-3.018-3.066-5.399 1.216-3.043 2.971-3.833 5.309-5.78 1.801-1.499 3.059-3.651 3.985-5.771 2.466-5.65 3.016-12.249 2.679-18.337l-.046-.721c-.872-11.891-7.32-29.613-21.599-29.287-.652.015-.607-.907 0-.984zm28.246-17.064c8.582-3.269 15.622 4.941 20.562 10.8 6.18 7.343 11.79 15.252 14.96 24.392 2.82 8.143 3.32 17.198.78 25.488-1.26 4.105-3.23 7.911-5.9 11.262l-.35.422c-2.78 3.399-5.47 5.487-10.04 4.27-1.86-.496-2.64-2.333-2.32-4.089.69-3.751 2.62-4.725 5.12-7.343 2.21-2.31 3.85-5.154 4.95-8.145 2.27-6.169 2.39-12.853.87-19.209-1.71-7.115-5.07-13.686-8.96-19.843l-.83-1.319c-4.12-6.509-9.99-16.533-18.678-15.477-.744.091-.754-.985-.164-1.209z" fill="#000"/>
  <path fill-rule="evenodd" clip-rule="evenodd" d="M883.698 654.748c7.003-14.004 71.234-7.709 71.234-7.709l5.426 44.511s-30.992 9.962-49.44 7.875c-18.448-2.088-34.223-30.674-27.22-44.677z" fill="#fff"/>
  <path fill-rule="evenodd" clip-rule="evenodd" d="M888.224 678.127c-2.218-4.747 43.7-17.691 57.917-8.846 14.217 8.846 9.772 20.911 9.772 20.911s-59.797 13.639-67.689-12.065z" fill="#FF8181"/>
  <path fill-rule="evenodd" clip-rule="evenodd" d="M879.715 646.461c10.718-12.454 28.769-13.321 43.722-10.207 9.596 1.999 18.938 5.328 28.685 6.562 4.552.577 9.153.749 13.738.665 4.504-.084 9.015-.991 13.503-.822.689.025.95.931.352 1.299-6.157 3.782-14.451 4.995-21.724 5.735.023.538.055 1.063.129 1.509a80.46 80.46 0 01.526 3.563c.33 2.696.7 5.384 1.068 8.075.727 5.297.955 10.761 2.232 15.965l.223.865c.296 1.094.363 2.081.264 2.97l.296-.134.935-.453.612-.289c2.235-1.036 4.368-1.791 6.996-1.539 2.001.191 3.68 1.555 3.693 3.692.05 9.588-12.872 12.671-20.263 14.506l-2.168.534c-9.408 2.295-19.013 4.307-28.689 4.788-15.528.771-32.977-3.513-43.135-16.108-9.478-11.751-11.215-29.301-.995-41.176zm70.516 40.285c-1.629-14.436-19.368-15.229-24.471-6.075-2.265-12.76-35.764-1.103-33.144 1.433 9.928 9.615 24.995 10.481 37.947 8.702 6.596-.905 13.198-2.38 19.668-4.06zm-19.687-37.835l-4.459-.642-1.757-.242c-11.056-1.481-23.49-2.246-32.58 4.843-3.319 2.587-5.186 5.962-5.884 9.587 8.601-1.275 17.234-2.248 25.893-3.057l2.362-.217a1731.9 1731.9 0 0016.244-1.543l3.847-.39 3.845-.399c1.353-.142 10.471-.608 12.186-.295.183-1.54.422-4.874.809-6.373-6.479.22-12.929-.261-19.369-1.117l-1.137-.155zm20.53-64.521c6.609 4.017 16.679 13.384 9.569 23.343-8.369 8.782-20.418-1.287-26.356-5.84-5.506-3.529-11.692 5.547-6.583 9.668 42.906 31.766 60.318-26.121 26.712-31.895-3.7-.636-5.074 3.481-3.342 4.724zm11.827 16.923l.318-.173.107-.065c.186-.12.068-.107-.355.04l-.317.113v.224c.082-.05.168-.087.247-.139zm-84.642-35.691l-.001-.197c.012-5.581 3.263-18.324 11.297-18.324 5.019 0 8.067 8.673 8.594 17.612l.019.365c.233 5.558-1.293 17.707-8.613 17.707-7.398 0-11.22-11.507-11.296-17.163zm118.289-1.75l.001-.197c-.012-5.581-3.263-18.324-11.297-18.324-4.894 0-7.913 8.244-8.55 16.942l-.044.67c-.317 5.37 1.109 18.071 8.594 18.071 7.398 0 11.22-11.506 11.296-17.162zM882.843 509.05c6.557-.997 15.24.897 18.297 7.564 1.362 2.97-.251 6.255-3.684 6.42-8.298.397-15.74-1.45-23.024 3.946-3.134 2.322-5.769 5.538-7.981 8.746l-.837 1.22-.693 1.006c-1.501 2.208-2.923 4.606-2.701 7.27.065.788-.741 1.537-1.506 1.505-4.774-.196-5.288-6.18-4.66-9.775 1.167-6.671 4.396-12.933 8.871-17.977 4.7-5.296 10.904-8.859 17.918-9.925zm90.312 8.096c4.521-2.907 10.305-4.024 15.602-3.596 10.443.841 27.963 9.719 25.663 22.476-.72 3.934-6.19 6.01-9.41 3.827-3.47-2.346-4.31-5.993-6.893-9.06-2.059-2.45-4.668-4.222-7.461-5.732-2.754-1.489-5.939-2.391-9.064-2.72l-.521-.05c-1.88-.16-11.378-.117-9.984 3.428.273.694-.76 1.244-1.234.719-2.912-3.221.386-7.418 3.302-9.292z" fill="#000"/>
  <defs>
    <filter id="filter0_d" x="0" y="0" width="1745" height="1745" filterUnits="userSpaceOnUse" color-interpolation-filters="sRGB">
      <feFlood flood-opacity="0" result="BackgroundImageFix"/>
      <feColorMatrix in="SourceAlpha" values="0 0 0 0 0 0 0 0 0 0 0 0 0 0 0 0 0 0 127 0"/>
      <feMorphology radius="10" operator="dilate" in="SourceAlpha" result="effect1_dropShadow"/>
      <feOffset/>
      <feGaussianBlur stdDeviation="50"/>
      <feColorMatrix values="0 0 0 0 0.921569 0 0 0 0 0.956863 0 0 0 0 1 0 0 0 1 0"/>
      <feBlend in2="BackgroundImageFix" result="effect1_dropShadow"/>
      <feBlend in="SourceGraphic" in2="effect1_dropShadow" result="shape"/>
    </filter>
  </defs>
</svg>
