<svg width="1745" height="1745" fill="none" xmlns="http://www.w3.org/2000/svg">
  <g filter="url(#filter0_d)">
    <circle cx="872.5" cy="872.5" r="762.5" fill="#FFF3C4"/>
  </g>
  <path fill="#FDEA6B" d="M888.471 966.659h200.423v246.809H888.471z"/>
  <path fill-rule="evenodd" clip-rule="evenodd" d="M830.013 725.253c21.604-16.451 75.844-23.849 98.902-8.009 22.775 15.907 25.257 41.631 35.87 65.295 10.013-4.722 26.549 2.04 29.452 11.331 3.601 4.383 3.763 16.694 6.243 22.585 108.04 17.197 124.44 101.426 137.45 197.045 17.2 97.04 56.25 193.86 39.3 293.71 2.21 3.19 3.95 6.3 5.56 9.99 3.86 6.57-1.11 15.86-8.9 15.5-10.07-.88-20.04-2.09-30.17-2.47-28.06-.97-56.14-.86-84.21-.5l-3.83.05c-141.46 1.76-282.914 5.23-424.383 6.15-5.132.01-7.645-4.59-6.96-9.13 1.381-9.15 2.661-18.29 3.997-27.44-33.46 8.84-69.032 11.06-102.399.93-2.334-2.38 5.439-1.09 6.672-1.45-30.708-20.98-21.537-65.19-18.817-97.02 16.914-109.1 22.877-229.806 88.228-322.9 28.272-37.991 69.721-68.07 117.349-74.838l1.321-.181c13.926-1.856 29.447-2.455 41.623-10.031 13.695-10.932 19.531-31.132 33.938-31.322 4.757-.062 11.229 5.956 18.193 10.043.52-8.989 5.364-16.575 6.434-23.545l.086-.596c1.117-8.125-.412-15.436 9.051-23.197zM1062.2 1016.39c-30.37-21.095-108.796-10.5-110.592-9.32-3.953 2.6-5.655 2.83-7.793 6.21-2.111.28-4.221.57-6.328.87-4.228 1.38-1.095 6.58 3.789 4.73-2.938 12.66 5.707 21.67 9.148 34.2 1.117 4.06.04 11.38 0 15.53.334 5.3 6.191 11.56 5.215 16.87-3.471 18.9-22.304 37.33-14.363 55.65 5.26 10.35 21.08 15.63 31.598 19.15 21.792 8.36 59.766-.32 72.426-19.15 6.75-10.04 14.58-35.38 18.6-43.23l.89-12.47c2.21-30.99 4.16-64.35-2.59-69.04z" fill="#EDB98A"/>
  <path fill-rule="evenodd" clip-rule="evenodd" d="M795.126 762.605l8.689 5.332 50.462 24.945c9.783 2.739 14.675 6.022 14.675 9.848v38.964c0 5.214 9.18 17.031 27.541 35.452l16.963-16.911-.379-2.214c-1.614-9.54-2.421-15.922-2.421-19.145 0-3.466 16.595-16.625 49.786-39.477l14.521-13.671-1.548-4.708c8.953.423 18.662 5.936 20.822 12.85 3.601 4.383 3.763 16.694 6.243 22.585 108.04 17.197 124.44 101.426 137.45 197.045 17.2 97.04 56.25 193.86 39.3 293.71 2.21 3.19 3.95 6.3 5.56 9.99 3.86 6.57-1.11 15.86-8.9 15.5-10.07-.88-20.04-2.09-30.17-2.47-28.06-.97-56.14-.86-84.21-.5l-3.83.05c-141.46 1.76-282.914 5.23-424.383 6.15-5.132.01-7.645-4.59-6.96-9.13 1.381-9.15 2.661-18.29 3.997-27.44-33.46 8.84-69.032 11.06-102.399.93-2.334-2.38 5.439-1.09 6.672-1.45-30.708-20.98-21.537-65.19-18.817-97.02 16.914-109.1 22.877-229.806 88.228-322.9 28.272-37.991 69.721-68.07 117.349-74.838l1.321-.181 1.331-.173c13.577-1.728 28.503-2.522 40.292-9.858 13.333-10.644 19.217-30.072 32.815-31.265zm120.916 228.696c-4.95 0-15.086 7.687-30.41 23.059l-1.35.62c-18.523 8.61-30.795 16.07-36.814 22.39l-.215.23c-6.08 6.53-18.122 23.87-36.124 52.04l-26.07 15.42h-9.864l-7.022 50.94 16.886 36.37 38.25-12.88 62.323-16.43 35.763-36.28 20.174-6.77c-2.448 7.07-3.335 14.1-.293 21.12 5.26 10.35 21.08 15.63 31.598 19.15 21.792 8.36 59.766-.32 72.426-19.15 6.75-10.04 14.58-35.38 18.6-43.23l1.16-16.2c2.08-29.88 3.62-60.81-2.86-65.31-30.37-21.095-108.796-10.5-110.592-9.32-3.953 2.6-5.655 2.83-7.793 6.21l-1.107.15 6.224-8.44-2.204-1.18c-15.726-8.339-25.954-12.509-30.686-12.509zm25.234 27.579c-2.813 12.12 4.991 20.9 8.681 32.61l-9.429-18.05v-14.33c.244-.06.493-.14.748-.23z" fill="#9DDADB"/>
  <path fill-rule="evenodd" clip-rule="evenodd" d="M790.959 760.721c2.096-1.856 5.198.476 3.866 2.984-2.993 5.635-6.064 10.975-10.081 15.956-2.436 3.021-5.045 5.877-7.689 8.703 6.786 5.87 12.605 13.158 18.101 19.988 7.027 8.735 13.67 17.841 21.559 25.834 7.779 7.883 16.381 13.394 26.782 17.068l2.101.73c10.448 3.668 21.615 8.622 27.505 18.514 1.161 1.951-1.178 4.362-3.143 3.144-10.234-6.336-22.259-7.611-33.398-11.798-10.761-4.044-20.141-10.268-28.43-18.213-8.274-7.931-15.221-16.954-22.468-25.787-7.166-8.734-14.882-16.193-23.358-23.582-13.081 8.799-28.012 12.628-43.194 16.389l-1.657.41c-15.201 3.764-30.32 8.134-44.581 14.688-12.573 5.777-24.94 12.677-35.181 22.078-10.872 9.977-19.334 22.72-27.078 35.182-17.324 27.881-29.504 58.426-40.226 89.342-11.152 32.159-20.48 64.959-28.01 98.149-3.83 16.88-6.94 33.88-9.497 51.01a763.817 763.817 0 00-3.284 24.79c-1.025 8.84-1.26 17.94-3.973 26.44-1.163 3.65-3.91 5.16-6.659 5.03l-.558 6.99c-.74 9.31-1.431 18.62-1.664 27.99-.387 15.57-.211 31.11.909 46.65l.159 2.12c.88 11.34 2.848 24.09 11.378 32.4 8.835 8.6 22.421 11.31 34.328 11.46 27.733.36 54.428-12.74 78.969-24.24 25.274-11.84 49.858-24.98 73.853-39.23a1119.308 1119.308 0 0036.24-22.48 939.223 939.223 0 0017.442-11.55c3.306-2.24 6.438-4.7 9.803-6.69-1.648-1.54-2.384-3.95-1.003-6.06-9.728-8.44-13.777-23.51-14.251-35.7-.382-9.84 1.067-19.66 2.21-29.41.576-4.91 1.289-9.82 2.028-14.71.293-1.94.516-4.01.857-6.05-26.268 14.44-53.271 27.29-80.99 38.71-14.208 5.86-28.598 11.12-43.187 15.94l-2.957.98c-13.823 4.52-27.977 8.8-42.267 11.38-.764.14-1.384-.99-.569-1.35 13.927-6.14 28.335-11.32 42.471-16.98l2.322-.95a4.206 4.206 0 01-.832-.12c-8.29-2-16.515-5.08-24.646-7.68-7.546-2.41-16.024-3.92-23.077-7.56-.543-.28-.239-1.03.29-1.07 7.927-.55 16.533 1.76 24.306 3.12l2.92.51c4.891.86 9.891 1.79 14.759 3 .176-1.63 1.087-3.27 2.383-4.23 14.263-10.56 12.815-31.9 14.34-47.63l1.132-11.68c1.989-20.44 4.094-40.88 7.292-61.16.171-1.09 1.847-.78 1.854.25.165 25.15-1.734 50.18-2.685 75.29l-.147 4.12c-.526 15.49-.939 31.58-10.697 43.5 1.365-.8 3.209-.8 4.315.52 1.358 1.62 2.142 3.43 2.118 5.21 8.818-3.7 17.597-7.49 26.333-11.36 28.088-12.44 55.587-26.37 82.359-41.44 2.881-1.62 5.62-.34 7.044 1.8l.206-.03c.034-.01.069-.01.105-.01l.204-.01h.023c3.768-2.07 8.902-.6 12.136 2.42.096.09.177.19.262.29a43.246 43.246 0 0011.386-7.47c7.1-6.43 13.114-14.39 18.356-22.36 9.655-14.7 17.855-31.04 30.897-43.14 10.596-9.82 23.733-15.94 37.515-19.78-.058-.41.096-.84.374-1.12.708-.73 1.213-.98 2.128-.54.073.04.116.09.146.14l1.345-2.3c.734-1.24 1.488-2.5 1.749-2.83a212.887 212.887 0 014.81-5.84c2.772-3.241 5.93-6.439 9.588-8.686 8.008-4.92 16.427-2.136 24.66.553 4.975 1.625 9.933 3.303 14.898 4.952l.513.168c3.703 1.189 8.036 2.23 9.692 6.153.655 1.55.757 3.16.451 4.73 35.169-8.947 74.236-4.84 108.556 5.66 1.31.4 2.63 1.49 2.91 2.91 3.93 20.17 5.68 40.85 3.9 61.36-1.54 17.7-5.46 35.05-12.85 51.26l-.42.91c-6.95 15.02-17.96 33.54-34.77 38.25-10.16 2.84-21.39 1.16-31.742.64-10.064-.5-20.351-.58-30.319-2.16-8.879-1.41-16.657-5.39-22.144-12.61-4.733-6.22-7.226-13.75-9.268-21.24-.934.3-1.863.61-2.777.97-3.857 1.51-7.125 3.94-10.079 6.8-6.24 6.04-11.08 13.38-17.608 19.15-5.909 5.22-12.643 9.28-19.866 12.4-14.967 6.47-31.024 9.05-46.856 12.48l-1.104.24c-11.918 2.61-24.084 5.82-34.604 12.03-.206 1.83-1.038 3.54-2.372 4.67 1.856 1.74 2.642 4.5 1.011 7.09-4.554 7.23-12.399 11.34-19.442 15.96l-.458.31a965.277 965.277 0 01-20.962 13.5c-14.323 8.97-28.945 17.44-43.774 25.54-23.85 13.03-48.212 25.32-73.016 36.47 1.489 7.33.945 14.88 2.064 22.25l.171 1.05c.478 2.74-.167 5.03-2.052 6.82l-.2.18.004-.03-.177.17-.059.05.02-.02c-.217.2-.442.38-.67.54l-.291.19c-1.816 1.1-4.153 1.09-6.011.12l-.213-.12-.357-.2c-2.456-1.42-4.149-4.92-3.13-7.7 2.504-6.83 3.45-14.12 5.762-21l-1.835.82-2.417 1.05c-26.15 11.31-55.196 20.83-83.688 13.12-12.589-3.41-24.355-10.61-30.654-22.36-6.198-11.56-7.075-24.98-7.404-37.83-.406-15.87.445-31.98 2.538-47.71 1.404-10.56 3.103-21.32 5.723-31.77-1.347-1.19-2.338-2.9-2.6-5.01-1.236-9.98.928-20.36 2.253-30.29 1.294-9.7 2.725-19.37 4.342-29.02 3.265-19.48 7.059-38.92 11.476-58.17 7.862-34.27 18.242-67.926 30.74-100.778l1.095-2.861c11.549-30.028 24.92-59.415 43.54-85.794 8.907-12.62 18.323-24.063 30.908-33.157 11.791-8.521 25.091-14.656 38.816-19.346 13.739-4.693 27.862-7.837 42.234-9.793 14.595-1.987 30.002-3.205 43.617-9.192-1.722-3.088-.244-7.256 2.655-9.171 9.755-6.445 18.776-14.83 27.519-22.577zm312.281 280.259c.41-.62 1.38-.23 1.2.51-4.75 19.43-9.2 38.91-12.11 58.72-5.25 35.75-4.28 71.97-3.85 107.99l.02 1.86c.22 19.4.52 38.8 1.17 58.19.32 9.8.96 19.7.61 29.51-.19 5.32-1.61 10.35-2.11 15.6-.44 4.6-.05 9.27.17 13.87.15 3.06-4.37 2.93-4.67 0l-.4-3.79c-.51-4.8-1.14-9.56-2.71-14.15-1.89-5.52-2.79-10.94-3.45-16.74-1-8.88-1.45-17.85-1.84-26.79l-.26-6.19c-1.62-37.37-1.56-74.92 1.06-112.26l.19-2.67c2.59-35.29 7.09-73.42 26.98-103.66zM1002.1 818.55c-1.24-.509-.8-2.383.57-2.057l2.5.596c18.28 4.38 36.24 9.126 53.31 17.276 17.08 8.155 31.54 20.33 43.03 35.302 22.33 29.101 31.61 64.468 38.94 99.802 8.14 39.261 15.56 78.671 23.77 117.921l1.53 7.31c7.6 36.56 14.77 73.13 20.06 110.12l.38 2.69c5.33 38.04 8.54 77.39 2.72 115.53-1.15 7.54-13.71 5.66-13.21-1.79 1.41-21.55 2.43-42.99 1.45-64.59-.98-21.6-3.01-43.11-6.03-64.52-2.54-18.02-6.33-35.82-9.68-53.7l-.53-2.82c-2.81-15.21-5.7-30.4-8.59-45.59l-4.32-22.74c-6.46-34.06-13.06-68.146-20.51-101.989l-.44-1.991c-7.3-32.56-18.05-66.666-39.93-92.521-22.19-26.24-53.97-39.455-85.02-52.239zm-80.662 345.36c.534-1.19 2.402-1.06 2.976 0 2.25 4.15 2.5 9.44 2.925 14.13l.045.48c.54 5.72 1.019 11.46 1.312 17.19.556 10.89.822 21.76.788 32.66-.035 11.17-.26 22.33-.862 33.49l-.163 2.99c-.55 9.69-1.472 20.5-6.078 28.98-1.674 3.08-6.228 2.17-7.198-.94-3.177-10.21-1.545-22.3-.731-32.75l.633-8.15c.627-8.16 1.224-16.31 1.698-24.48.649-11.16 1.185-22.34 1.701-33.52.167-3.63.348-7.26.539-10.88l.295-5.45c.251-4.55.23-9.55 2.12-13.75zm-357.214 14.45l1.407-1.36c4.317-4.22 9.773-10.73 16.155-10.32 2.545.16 4.167 2.27 3.639 4.77-1.127 5.36-6.587 8.13-10.518 11.4-4.306 3.58-8.364 7.41-12.415 11.27a241.813 241.813 0 00-10.422 10.58l-1.261 1.36c-1.209 1.32-9.818 9.11-8.887 11.13l.05.09c.259.39-.172.92-.602.79-3.718-1.18-3.486-4.37-2.08-7.59 2.701-6.21 7.43-11.95 11.56-17.24 4.119-5.29 8.577-10.21 13.374-14.88zm370.687-155.57c-2.875-6.79-13.466-6.65-19.479-6.24-15.141 1.02-31.523 4.85-44.995 11.93-13.967 7.33-23.376 19.09-31.794 32.09l-.394.61c-8.205 12.75-16.107 27.85-28.955 36.62-6.544 4.47-14.186 8.55-22.126 10.32-.545.95-1.428 1.71-2.586 1.99l-.538.12c-2.261.5-5.775 1.05-8.809.72.02 1.49.004 2.96.042 4.37.107 4.03.152 8.07.152 12.11.002 8.45-.452 16.91-.099 25.36.312 7.48 1.367 15.29 4.956 21.97 2.632 4.9 6.105 8.14 10.298 11.24 10.316-6.29 21.98-10.12 33.818-13 14.316-3.49 28.975-5.81 42.966-10.54 6.734-2.27 13.208-5.25 19.074-9.29 6.225-4.29 10.98-10.1 15.872-15.78l.765-.88c4.993-5.73 10.441-11.21 17.497-14.31 6.077-2.68 14.086-3.15 19.399-7.29 2.778-2.17 3.011-5.31 3.303-8.53-3.402.49-7.005-.29-10.396-.69l-1.757-.2c-3.207-.39-6.34-.8-9.497-1.62-.587-.15-.587-1.04 0-1.19 3.731-.96 7.428-1.37 11.254-1.82l.898-.11c3.461-.45 7.099-1.14 10.494-.38a28.485 28.485 0 012.722-6.74c1.732-3.12 5.01-6.65 5.453-10.28.132-1.09-.121-2.37-.633-3.33l-.176-.33c-.216-.38-.47-.77-.844-1.01-.041.04-.128.1-.318.16-2.613.82-4.892-.46-6.101-2.43-5.135.64-10.739.42-15.554.64l-4.869.23c-5.202.24-10.641.35-15.53-.71-.682-.14-.889-1.28-.206-1.57 6.011-2.57 13.301-3.39 19.736-4.38 3.593-.55 7.213-.97 10.817-1.46 2.4-.32 4.947-.85 7.433-.98 6.234-7.76 2.875-20.01-5.801-23.35-3.16 1.39-6.002.58-9.454.29-3.447-.3-6.902-.5-10.363-.48-6.934.03-14.282 1.85-21.149 1.07-1.117-.13-2.155-1.62-1.044-2.53 5.256-4.29 12.789-5.68 19.461-6.6l1.383-.18c2.237-.3 4.958-.72 7.779-.98.638-1.24 1.783-2.18 3.503-2.42.511-.07 1.025-.11 1.538-.15l-.008-.05c4.194-.21 4.012-7.29 2.862-10.01zm-287.129 132.53c-.074.12-.155.22-.241.33l-.134.15.69-.28-.315-.2zm360.318-147.71c-17.656-1.9-35.334-1.5-53.04-.99-1.416 4.63-6.345 8.58-11.121 8.73 3.741 5.69 4.127 13.4 1.504 19.44 5.569 2.21 10.367 6.19 13.279 11.87 4.039 7.86 3.511 16.61-.481 23.87 3.407 3.09 5.418 8.1 5.216 12.82-.225 5.26-3.362 9.76-5.97 14.12-2.817 4.71-2.911 8.86-3.777 14.14-1.266 7.73-6.477 12.41-13.182 15.34l.356 1.4c1.729 6.73 3.88 13.83 8.82 18.75 6.356 6.33 16.216 6.27 24.613 6.67l.405.02c7.689.39 15.375.84 23.062 1.27l5.766.32c8.85.49 17.35.55 24.57-5.3 11.8-9.55 19.88-25.36 25-39.35 10.74-29.37 10.87-61.6 5.94-92.18-16.53-5.33-33.69-9.09-50.96-10.94zm-146.809 48.72l.13.01c3.634.42 6.131 3.36 7.021 6.85 1.291 5.08.658 9.66 3.766 14.24 3.197 4.71 5.162 8.49 5.627 14.31.191 2.39.103 4.78.636 7.12l.387 1.64c.41 1.76.746 3.44.542 5.32-.186 1.72-1.021 3.05-2.741 3.6-5.604 1.79-9.931-2.34-11.379-7.56-1.25-4.51.42-9.88-1.345-14.12-.977-2.35-2.78-4.31-3.799-6.68-1.009-2.34-1.516-4.79-1.678-7.33-.307-4.82 3.953-10.61 1.576-14.97-.506-.93.067-2.46 1.257-2.43zm-74.439-49.71c3.795-.77 8.1-2.54 11.843-1.07 1.923.76 2.874 3.1 1.248 4.74-2.821 2.82-6.923 2.98-10.723 3.65l-.335.06a771.52 771.52 0 01-13.504 2.37 645.072 645.072 0 01-25.515 3.7c-8.763 1.08-17.55 2.05-26.349 2.77l-3.407.28c-7.433.6-15.167 1.05-22.46-.09-1.06-.17-.889-1.71 0-1.98 7.99-2.42 16.754-3.07 25.014-4.09 8.782-1.09 17.549-2.24 26.293-3.61 8.731-1.36 17.449-2.82 26.136-4.44a671.97 671.97 0 0011.759-2.29zm136.93-7.762c-3.33-1.179-6.993-2.926-10.602-2.341-6.223 1.008-11.761 7.073-16.687 11.063l2.474-.48c12.654-2.43 29.413-5.05 40.036 2.99.027-.04.048-.09.079-.14.857-1.3 1.851-2.31 2.935-3.43.104-.1.204-.2.303-.3l.585-.62-1.338-.47c-2.867-1.01-6.262-2.32-6.799-2.51l-.037-.01c-3.654-1.24-7.312-2.46-10.949-3.752zM819.806 733.605c-.521-6.698 9.904-6.643 10.42 0 1.127 14.502-2.137 28.867-9.161 41.581-.052.093-.109.175-.163.263 4.393 2.286 8.837 4.479 13.379 6.44 5.811 2.508 11.731 4.792 17.756 6.73 5.451 1.754 12.167 2.446 16.749 6.096 9.663 7.695 6.033 23.664 4.174 34.015l-.29 1.634c-.926 5.326-1.595 10.791.651 15.903 2.398 5.461 7.247 9.511 11.573 13.418l.874.792c3.833 3.492 8.212 7.734 11.023 12.467 2.566-5.305 6.064-9.641 9.763-14.522 2.639-3.483.761-4.632-1.135-8.034-1.825-3.275-2.716-6.767-2.145-10.503 1.053-6.9 6.567-11.884 12.057-15.629 6.482-4.421 13.718-7.696 20.419-11.809 13.771-8.449 27.181-18.109 39.264-28.839.333-.296.911.092.644.497-9.544 14.518-20.736 27.062-34.489 37.71-5.577 4.317-11.436 7.899-17.334 11.663l-1.695 1.088c-2.368 1.534-5.322 3.584-6.393 6.196-1.077 2.627 1.22 4.61 2.457 6.786 3.927 6.909 2.032 13.356-2.623 19.215l-.217.27c-4.626 5.701-8.133 11.003-9.809 18.287-3.603 15.646 1.415 31.943 6.669 46.631l.207.579c2.842 7.917 5.862 15.777 8.331 23.821l.68 2.224c2.237 7.401 4.068 14.701 1.559 22.31-.853 2.588-4.383 3.199-5.849.764-5.172-8.59-6.461-18.926-9.703-28.369-3.159-9.204-6.787-18.241-9.839-27.483-3.929-11.898-6.559-24.706-5.132-37.186-.042-.073-.088-.141-.123-.218l-1.001-2.189c-2.727-5.924-5.362-11.099-10.323-15.821-5.174-4.927-10.79-9.288-14.862-15.252-8.843-12.954-3.374-27.364-2.306-41.528l.123-1.737c.194-2.941.3-6.938-1.621-8.973-2.161-2.292-7.229-2.876-10.096-3.891-7.409-2.622-14.711-5.677-21.665-9.346-6.621-3.492-13.033-7.35-19.004-11.87l-3.026-2.276c-4.775-3.603-9.726-7.537-12.926-12.441-.37-.565.258-1.476.927-1.205 5.342 2.168 10.223 5.616 15.221 8.616.078-.183.168-.367.271-.553 6.184-11.192 8.727-23.592 7.739-36.322zm170.651 76.682c2.129-5.837 11.833-5.386 11.443 1.549-.3 5.328-2.559 10.137-4.627 14.974l-.221.519c-2.136 5.04-4.602 9.772-7.553 14.392-5.639 8.83-12.244 17.026-19.299 24.76-6.396 7.012-14.791 11.3-24.465 10.587-4.076-.3-8.19-1.337-11.762-3.373-4.242-2.419-8.849-9.682-14.262-7.923-.523.17-1.011-.597-.559-.96 6.248-5.032 13.34 2.77 19.322 4.65 9.014 2.831 18.264-.299 24.066-7.586 6.057-7.608 11.632-16.127 16.723-24.411 2.586-4.206 4.944-8.571 6.982-13.071 2.056-4.541 2.523-9.477 4.212-14.107zm-14.53-35.921c-.262-.806.739-1.573 1.447-1.112 4.106 2.672 7.664 6.204 11.451 9.3a561.614 561.614 0 0012.735 10.111c6.26 4.83-1 13.722-6.52 8.446-7.548-7.218-15.814-16.656-19.113-26.745zm-22.541-28.251c1.668-6.432 11.533-3.78 10.096 2.577l-.047.194c-2.723 10.499 1.155 21.188 9.433 27.995l.305.248c5.237 4.191-2.183 11.518-7.368 7.367-11.321-9.06-16.03-24.451-12.419-38.381z" fill="#000"/>
  <path fill-rule="evenodd" clip-rule="evenodd" d="M1031.89 424.435c-1.94-4.905-5.38-11.071-11.13-11.317-4.44-13.588-15.49-27.426-30.863-27.058-45.115-46.136-101.913-43.961-161.296-34.194-31.329 5.81-63.14 17.188-86.506 39.64-27.986 26.434-38.883 72.556-16.968 105.981-18.94 10.15-19.308 34.236-11.208 51.616-9.736 6.733-10.328 23.075.636 28.211-.583 2.388-.171 4.856.941 6.977-5.436 4.525-12.512 7.867-18.361 10.741-2.585 1.27-4.076 3.344-4.696 5.682-19.205 12.599-67.095 43.391-66.524 67.897-.282 12.785 9.202 21.2 20.726 24.55-6.857 13.708-12.062 29.72-5.498 44.508 1.814 4.468 15.408 17.599 16.093 17.841 1.196 1.026 20.698-7.928 30.177-12.495 1.838 11.956 14.622 18.22 25.642 14.123 10.449-3.15 16.872-11.996 23.462-20.043 8.748 19.083 34.485 19.302 51.119 11.075 14.939-6.901 26.295-19.549 32.621-34.791 33.592 16.444 72.894 21.238 109.391 14.669 2.342 4.145 7.526 6.929 12.145 5.326 19.407-5.834 40.864-6.161 57.315-19.528 34.292-24.612 37.172-69.986 34.782-108.665-2.12-38.564-.26-77.449-7.27-115.597 3.04-11.232 8.1-21.161 12.78-31.712 5.09-11.065 4.98-27.512-7.51-33.437z" fill="#EDB98A"/>
  <path fill-rule="evenodd" clip-rule="evenodd" d="M876.218 347.887l1.333.005c2.203.015 4.403.058 6.598.13 11.596.382 23.69 1.886 37.307 4.462l2.07.397c3.387.663 6.421 1.329 11.26 2.459l9.603 2.263c4.891 1.14 8.489 1.928 11.81 2.562l.435.082s25.592 12.267 33.858 20.337l.825.812.35.351 3.594.113.035.454.031.005c3.568.555 6.793 2.403 9.793 5.28l.32.312.31.309c2.34 2.379 4.21 4.913 6.78 8.931l.58.917 1.04 1.658.85 1.33c.55.871 1.08 1.732 1.58 2.585l.5.85.36.626 9.28 5.412c1.34.78 2.56 1.789 3.67 2.998l.3.334.3.345 2.52 3.008-.51.53.25.324.44.605.43.613.42.62.18.273.27.589.14.294.1.243.32.163.64 1.162c3.35 6.036 5.15 12.889 5.27 19.932.09 4.858-.51 9.27-1.93 13.527-.99 2.942-2.31 5.255-4.59 8.439l-1.8 2.472-.37.51-.44.621-.21.294c-2.93 4.246-27.98 12.281-43.373 12.669l-.464.01-.592.005a48.516 48.516 0 01-4.257-.16c-5.924-.496-11.461-1.742-17.894-3.78l-1.335-.431-7.087-2.381-.534-.175-.647-.202c-1.561-.479-2.695-.754-3.468-.854l-.158-.019-.016.293-.006.277.001.224c.046 3.262-1.935 5.64-5.009 7.156-1.957.965-4.478 1.654-7.643 2.171l-.505.081c-5.173.799-11.343 1.14-21.664 1.374-.393.009-.789.004-1.188-.014-2.217-.102-3.958-.479-7.195-1.409l-1.531-.439-.83-.229c-1.539-.416-2.397-.582-3.207-.628l-.236-.01-.233-.004c-.973-.001-1.676.216-2.368.743l-.354.284-4.758 3.986c-.619.515-1.175.973-1.582 1.297l-.165.131c-6.531 5.12-12.758 8.045-20.093 8.323l-.491.015-.511.006c-.373.001-.747-.006-1.122-.02-3.089-.118-6.295-1.263-10.674-3.471l-.907-.464-.635-.331c-.325-.171-.663-.35-1.03-.547l-3.266-1.748-1.669-.872c-1.995-1.025-3.107-1.52-3.856-1.724l-.122-.033-.07.068c-1.732 1.692-3.219 3.82-4.819 6.759l-.241.447-.35.666-2.272 4.523-.429.841c-1.687 3.265-3.021 5.352-4.768 7.183-2.534 2.657-5.603 4.199-9.363 4.446l-.379.021-.448.011c-1.771.017-3.647-.255-5.682-.82l-.473-.136-.46-.141c-3.032-.957-7.824-.361-11.63 1.659-4.133 2.193-6.41 5.541-6.308 9.818.05 2.125.295 4.403.724 6.872l.122.678c.564 3.052 1.329 6.114 2.507 10.199l2.533 8.545.286.997.286 1.026c.411 1.494.74 2.796 1.01 4.021 1.034 4.687 1.206 8.207.17 11.205-4.569 13.221-12.498 20.244-21.523 20.541l-.312.007-.386.001c-6.934-.075-13.217-4.593-13.141-10.446a4.808 4.808 0 01.327-1.701l.093-.218.044-.093-.071-.176c-2.131-5.101-7.06-8.825-12.847-9.555l-.329-.038-.324-.031a17.336 17.336 0 00-.935-.057l-.294-.008-.352-.003c-7.713.012-15.345 5.147-21.349 13.546a46.446 46.446 0 00-3.458 5.684l-.344.677-1.669 3.415-1.128 3.303c-6.212 18.185-3.067 37.216 9.059 47.054l.37.295c4.369 3.426 9.507 5.508 14.992 6.069.631.064 1.267.105 1.878.121l.453.008.521-.001c1.788-.024 3.497-.246 5.032-.661 1.253-.338 2.125-.748 2.731-1.271.16-.137.288-.262.399-.386l.093-.111.035-.048 8.287 1.229c1.41 8.948 5.482 18.22 12.107 28.853l.417.666.728 1.147.741 1.148c7.795 11.989 16.488 22.084 26.044 29.83l.668.537.895.71.822.644c1.597 1.239 2.927 2.204 4.258 3.065l.333.213 3.143 1.991-1.459 3.422c-3.404 7.984-8.101 15.242-13.89 21.422l-.546.576-4.024 4.15-3.095-3.94c-.023-.03-.093-.068-.175-.083l-.057-.007h-.031l-.042.004-.05.014-.05.022c-2.317 1.256-3.589 2.216-5.418 4.096l-.265.275-.309.325-.425.443c-1.899 1.946-3.929 3.603-6.142 4.983-5.11 3.184-10.782 4.954-16.655 5.114l-.551.01h-.555a29.954 29.954 0 01-.598-.011c-12.254-.339-23.235-8.19-28.632-19.696-.214-.457-.412-.606-.775-.636l-.103-.005-.13-.002c-.9.006-2.003.542-2.618 1.261l-.109.137-2.066 2.776-.792 1.048c-7.37 9.674-13.42 14.966-21.546 16.573-.64.126-1.317.204-2.036.235l-.436.018h-.255c-3.495.01-7.522-1.003-10.662-2.786-4.152-2.358-6.719-5.985-6.394-10.48l.025-.288.057-.481c.271-2.399-1.649-3.703-3.119-2.525l-.1.084-.121.11c-6.055 5.678-13.018 10.034-20.519 12.723l-.663.233-.986.336c-4.73 1.596-8.065 2.388-11.578 2.45-3.039.052-5.567-1.044-7.395-3.152-1.219-1.406-1.964-2.968-2.708-5.247l-.124-.387-.271-.887-.168-.576c-2.176-7.657-2.224-15.844-.515-24.878 1.276-6.747 3.308-13.266 6.724-22.403l.663-1.762 1.369-3.593c.137-.361-.685-1.619-1.193-1.761l-.06-.011-.465.05a17.53 17.53 0 01-.989.065l-.512.013h-.335c-11.097-.114-19.573-10.996-19.495-22.524.086-10.798 5.517-20.083 15.885-31.105l.901-.949.975-1.01.963-.985c9.214-9.381 18.633-17.57 28.442-24.594l.812-.579.904-.638c3.303-2.317 6.514-4.418 10.959-7.18l2.616-1.616 10.603-12.512a63.1 63.1 0 00.753-.432l.134-4.34 10.216.211c-2.592-1.33-4.74-2.944-6.485-5.012-5.798-6.876-5.07-16.427 1.98-21.121l.249-.162 2.972-1.835 2.432 2.134c2.118 1.858 4.365 3.091 6.708 3.659l.371.084 1.833.389.357.578.206-.3a.305.305 0 00-.017-.088l-.018-.042-.038-.06-.231-.284-.255-.305c-.816-.958-1.731-1.889-3.394-3.49l-1.166-1.121-.908-.883c-2.383-2.34-3.651-3.79-5.001-5.803-3.357-5.008-5.253-10.655-5.332-16.391-.165-11.927 7.254-23.203 18.247-28.35.385-.18.669-1.461.207-2.308-10.644-19.53-13.597-42.94-8.251-64.717 4.99-20.318 17.401-38.253 35.171-51.991 30.505-23.585 72.821-35.747 117.719-36.166l1.361-.009h1.307z" fill="#ECDCBF"/>
  <path fill-rule="evenodd" clip-rule="evenodd" d="M713.088 588.128c2.02-.508 3.106 2.208 1.39 3.299-10.891 6.928-22.142 13.114-32.662 20.652-10.007 7.165-19.25 15.327-27.869 24.102l-.955.978c-7.792 8.016-16.421 18.214-16.509 30.039-.067 9.191 7.019 19.223 16.907 18.016 3.725-.455 7.148 4.271 5.849 7.678l-1.368 3.591c-5.501 14.533-11.098 30.999-6.753 46.288l.16.546c1.051 3.501 2.159 6.595 6.222 6.525 3.772-.067 7.696-1.339 11.227-2.552 7.326-2.52 13.965-6.722 19.601-12.007 4.985-4.673 11.353.075 10.682 6.015l-.024.19c-.918 6.665 9.701 9.76 14.529 8.807 9.532-1.885 16.328-11.435 21.741-18.716 2.602-3.499 8.922-4.876 11.208 0 4.53 9.658 13.867 16.876 24.791 17.179 5.674.157 11.117-1.458 15.923-4.453 1.962-1.223 3.716-2.677 5.325-4.326l.399-.416c2.381-2.523 4.023-3.865 7.064-5.513 2.996-1.623 6.871.39 6.853 3.932-.025 4.588-1.369 7.638-4.533 10.965-2.618 2.756-5.728 5.175-8.998 7.109-6.571 3.882-14.383 6.067-22.033 5.814-12.059-.399-23.569-6.41-31.03-15.757-7.618 9.109-17.067 17.477-29.347 17.252-9.194-.168-17.761-4.953-21.866-12.368-5.794 3.995-12.155 7.119-18.958 9.159l-.607.179c-9.63 2.803-20.714 3.917-26.913-5.644-5.82-8.976-6.254-21.407-4.92-31.667 1.191-9.165 4.011-17.869 7.249-26.454-9.217-2.752-16.372-11.411-18.83-20.744-3.718-14.113 3.495-27.801 12.412-38.288 9.686-11.391 21.876-21.026 34.158-29.46 12.249-8.41 25.972-16.313 40.485-19.95zm314.962-110.392c.02-.392.66-.53.72-.099 4.23 30.7 6.68 61.339 8.71 92.25 1.03 15.66 2.2 31.305 3.48 46.946 1.22 14.998 3.26 30.396 2.8 45.455-.72 23.582-12.17 42.756-30.95 56.554-17.991 13.224-40.31 19.762-62.209 22.524-12.717 1.604-25.612 1.681-38.343.174-6.613-.783-13.217-1.825-19.693-3.389l-2.801-.701c-5.1-1.302-10.795-3.07-11.522-9.112-.353-2.925 1.201-5.084 3.711-6.552 3.273-1.915 7.025-.788 10.397.085 5.683 1.47 11.426 2.732 17.234 3.605 12.474 1.876 25.298 1.987 37.836.688 21.091-2.186 43.338-9.027 59.6-23.154 7.07-6.139 13.21-13.619 16.44-22.506 4.16-11.425 3.54-23.889 3.41-35.853-.33-27.818-.04-55.637-.43-83.458-.39-27.906-.05-55.592 1.61-83.457zM815.956 347.728c24.644-6.355 49.655-8.007 74.969-6.094 23.873 1.803 51.069 7.145 70.567 21.828.946.712.379 2.061-.792 1.875-13.035-2.078-25.741-5.857-38.721-8.358-12.484-2.405-25.192-4.21-37.904-4.629-42.992-1.417-90.83 8.325-125.497 35.129-16.255 12.567-28.66 29.465-33.597 49.571-5.063 20.623-2.324 42.925 7.843 61.58 1.464 2.686.861 6.935-2.194 8.365-9.268 4.339-15.87 13.953-15.726 24.327.069 5.031 1.803 9.856 4.591 14.015 2.948 4.398 7.435 7.475 10.732 11.583 1.298 1.617 1.347 3.844.319 5.334 1.928.845 4.008 1.298 5.905 2.296 1.609.846 1.654 3.488 0 4.321-4.183 2.107-8.706-.129-11.53-3.526a16.271 16.271 0 01-1.337-1.881c-3.382-.717-6.412-2.414-9.058-4.735-5.041 3.018-5.731 9.738-1.401 14.873 2.212 2.621 5.354 4.239 8.529 5.403l.382.137c3.09 1.098 5.92 1.71 7.928 4.183 1.324-2.761 2.845-5.363 4.539-7.734 6.161-8.618 15.63-16.264 26.867-15.293 8.802.759 16.428 7.06 18.232 15.755.133.643-.837 1.145-1.126.474-4.223-9.847-17.585-10.209-25.544-5.077-9.36 6.035-14.476 17.409-16.528 28.001-2.02 10.434-.853 23.125 6.957 31.061 3.195 3.248 7.542 5.494 12.08 6.086 2.217.29 4.174.004 6.295-.423l1.405-.293c.975-.202 1.945-.365 2.967-.274l1.524.205.866.405c.751.337.683.245-.203-.278 2.589-.212 3.927 1.701 4.069 3.799a.91.91 0 01.228.191c9.825 12.023 17.12 25.844 27.546 37.473l3.052 3.407c7.847 8.729 16.805 18.191 27.464 22.719l1.268.525c3.101 1.31 6.215 3.103 6.611 6.841.354 3.348-2.285 5.868-5.329 6.65-6.929 1.777-14.829-4.382-19.904-8.422-10.914-8.687-20.086-19.76-27.661-31.411l-.749-1.16c-6.227-9.725-12.079-20.816-13.898-32.358l-.328.532a1.976 1.976 0 01-.056.084c-.371.504-.78.929-1.254 1.337-1.275 1.1-2.829 1.743-4.444 2.178-3.031.819-6.354.98-9.469.661-6.329-.647-12.245-3.055-17.247-6.978-15.232-11.945-17.031-34.174-10.87-52.208-5.056 1.207-10.814-2.195-14.761-5.11-4.526-3.345-8.259-8.174-9.151-13.854-.886-5.636 2.708-13.1 8.038-15.275-5.53-6.64-8.75-16.063-9.083-23.608-.578-13.125 6.395-25.53 17.101-32.691-10.068-21.575-12.007-46.605-5.229-69.513 13.451-45.457 58.511-70.877 101.717-82.021zm-38.352 345.378l.125-.399c1.073-3.516 2.457-10.509 7.709-7.846 5.018 2.542 1.815 10.068.06 13.732-2.1 4.384-5.726 7.898-10.595 8.84-3.962.766-8.311-.218-11.082-3.278-.808-.892-1.264-1.871-1.743-2.951-.186-.42-.27-.708-.305-.895-.046.206-.175.512-.506.872-2.211 2.416-4.299 5.228-5.903 8.086-.38.675-1.577.202-1.275-.538 1.869-4.57 1.555-11.637 5.72-14.943 3.671-2.914 7.121-.621 9.062 2.773l.1.176c2.838 5.154 7.361.259 8.633-3.629zm-39.935-16.514l.383-.532c3.926-5.365 10.546-11.819 17.17-6.829 2.106 1.587 2.184 4.235 0 5.81l-.827.59c-2.894 2.051-5.775 3.989-7.901 6.931-2.309 3.199-4.384 6.586-7.489 9.095-5.492 4.438-14.367 5.313-19.133-.669l-.469-.594a18.579 18.579 0 01-1.227-1.748l-.289.4a5.023 5.023 0 00-.079.115l-.067.102c-1.959 3.13-4.433 5.707-7.515 7.741-5.856 3.864-12.456 4.401-19.083 2.356-.648-.201-.474-1.07.154-1.128 7.851-.733 15.501-6.311 18.695-13.494l.361-.806c1.292-2.857 2.74-5.573 5.933-6.695 3.107-1.092 6.37.062 8.501 2.413 1.782 1.964 2.241 5.87 5.456 5.009 3.52-.943 5.501-5.352 7.426-8.067zm-22.489-47.719c1.739-1.321 4.463.096 4.942 2.011 2.169 8.67-6.842 18.887-15.501 19.155-2.229.068-4.374-.471-6.348-1.503-1.532-.799-3.344-2.844-5.026-3.183-2.171-.436-4.095 2.455-5.624 3.94-1.896 1.842-3.773 3.552-5.898 5.122-.849.628-2.166-.426-1.807-1.39l.719-1.915c2.602-6.82 7.083-16.775 15.47-13.945 4.109 1.386 7.202 6.062 11.529 2.359 3.465-2.964 3.788-7.797 7.544-10.651zm37.003-34.902c7.818-8.975 26.197-4.235 29.682 6.684.77 2.411-.034 5.545-1.917 7.252-2.481 2.248-6.021 2.929-9.033 1.165-2.592-1.516-3.657-3.998-5.562-6.128-2.795-3.12-6.596-4.852-10.512-6.093a11.238 11.238 0 00-2.708 2.007c-.418.417-1.209-.155-.838-.647a11.255 11.255 0 011.822-1.878l-.337-.099c-1.031-.287-1.254-1.507-.597-2.263zm50.812-99.086c1.752.002 3.793 1.648 3.569 3.569l-.068.533c-.504 3.657-1.679 5.728-5.34 7.428-3.106 1.439-6.369 2.235-9.773 2.55a24.52 24.52 0 01-4.034.024l-.291 1.678c-.578 3.358-1.113 6.718-1.214 10.14-.187 6.345 2.181 11.573 4.72 17.238 4.874 10.88 5.421 21.741.115 32.606-.776 1.589-2.974 2.884-4.747 2.723-2.299-.208-3.41-.873-4.747-2.723-1.123-1.553-.867-3.748-.089-5.371l.089-.178c2.674-5.181 3.516-11.033 2.151-16.727-1.283-5.352-4.19-10.162-5.487-15.498-2.115-8.69.137-17.311 4.537-24.767-3.321-.957-6.393-2.662-8.443-5.262l.009-.003c-.782-.836-.355-2.582 1.018-2.477l1.553.125c4.442.371 8.531.758 13.024-.481 2.302-.635 4.29-1.694 6.267-2.977l.424-.278c2.473-1.644 3.844-1.876 6.757-1.872zm10.632-64.234c11.136-.633 20.643 6.716 25.265 16.499 5.021 10.621 2.914 22.808-1.517 33.258l-1.259 2.924c-2.204 5.068-5.097 11.094-9.61 13.813-5.069 3.054-9.451-.488-7.956-6.118.891-3.353 3.302-5.939 5.253-8.707 1.82-2.584 3.519-5.259 5.008-8.049 2.918-5.472 5.097-11.569 5.073-17.838-.041-11.442-7.601-24.555-20.257-24.387-.905.01-.89-1.345 0-1.395zm56.322-18.463c-.694-.527-.074-1.699.702-1.205 12.914 8.213 22.556 23.641 24.498 38.797 1.077 8.409.254 17.395-3.327 25.156-2.054 4.453-5.58 8.704-10.509 9.924-4.532 1.122-9.203-1.466-10.609-5.89-.545-1.716.393-3.511 1.81-4.448 4.595-3.038 8.294-6.872 10.459-12.028 2.252-5.362 3.15-11.052 3.177-16.835.066-13.544-5.339-25.216-16.201-33.471zm157.751 5.87c-.6-.663.15-1.64.94-1.225 9.34 4.91 15.27 14.315 16.97 24.615 1.66 10.085-.58 23.813-8.38 31.106-4.41 4.117-12.3-1.358-8.64-6.661 2.59-3.74 5.38-6.82 6.86-11.238 1.31-3.943 1.78-7.919 1.71-12.063-.16-9.039-3.39-17.795-9.46-24.534zM913.554 405.43c15.951-.76 25.617 17.449 27.832 31.021 1.367 8.385.339 17.022-4.291 24.295l-.273.423c-3.821 5.81-10.766 12.5-18.249 9.748-3.168-1.163-4.011-4.556-1.883-7.13 3.256-3.94 8.288-5.546 11.35-9.753 3.434-4.718 4.559-10.63 4.361-16.367l-.027-.634c-.532-10.555-5.567-30.812-18.82-30.454-.743.019-.734-1.115 0-1.149zm49.893-3.025c15.428-1.972 24.823 16.178 27.721 28.681 1.81 7.817 2.206 16.536-.109 24.294l-.173.553c-1.884 5.79-7.444 15.71-14.701 12.751-1.989-.81-4.018-3.018-3.066-5.399 1.215-3.043 2.97-3.833 5.309-5.78 1.801-1.499 3.059-3.651 3.985-5.771 2.466-5.65 3.016-12.249 2.679-18.337l-.047-.721c-.871-11.891-7.319-29.613-21.598-29.287-.652.015-.608-.907 0-.984zm28.245-17.064c8.588-3.269 15.618 4.941 20.558 10.8 6.18 7.343 11.79 15.252 14.96 24.392 2.83 8.143 3.33 17.198.78 25.488-1.26 4.105-3.22 7.911-5.9 11.262l-.34.422c-2.79 3.399-5.48 5.487-10.05 4.27-1.85-.496-2.64-2.333-2.32-4.089.69-3.751 2.62-4.725 5.13-7.343 2.21-2.31 3.84-5.154 4.95-8.145 2.27-6.169 2.39-12.853.86-19.209-1.71-7.115-5.06-13.686-8.95-19.843l-.84-1.319c-4.12-6.509-9.99-16.533-18.674-15.477-.744.091-.753-.985-.164-1.209z" fill="#000"/>
  <path fill-rule="evenodd" clip-rule="evenodd" d="M929.244 676.901c-5.884-2.4-11.133-6.404-14.971-11.518-1.334-1.778-1.68-3.656-1.4-5.373.314-1.931 1.457-3.681 3.014-4.855 1.563-1.177 3.518-1.758 5.408-1.462 1.642.258 3.277 1.157 4.57 3.021l.271.373c2.281 3.087 5.255 5.62 8.642 7.252 3.266 1.574 6.917 2.308 10.697 1.881 7.197-.813 12.158-4.706 17.431-9.991.654-.668 1.308-1.356 1.965-2.056a3.096 3.096 0 011.63-1.255 3.509 3.509 0 012.249.033 3.57 3.57 0 011.769 1.341c.404.594.634 1.327.559 2.171-.482 5.478-3.346 10.367-7.415 14.205-4.518 4.264-10.507 7.213-16.146 8.248-6.212 1.139-12.542.323-18.273-2.015zm21.204-84.51c6.609 4.017 16.679 13.385 9.569 23.344-8.369 8.782-20.418-1.287-26.356-5.84-5.505-3.53-11.691 5.547-6.583 9.668 42.906 31.766 60.318-26.121 26.713-31.895-3.7-.636-5.075 3.48-3.343 4.723zm-76.888-36.952c.73-9.064 14.535-11.122 15.908-2.153 1.229 8.035-.218 15.415-3.837 22.649-3.458 6.911-12.149 3.686-12.807-2.606-.881-8.435.282-12.251.736-17.89zm105.081-4.012c1.924-2.521 4.703-4.242 8.032-3.269 10.402 3.039 7.336 17.807 3.683 24.995-1.985 3.903-8.401 4.893-11.3 1.456-4.727-5.605-6.99-16.798-.982-22.319.163-.285.344-.573.567-.863zm-93.157-35.649l1.643-.287c5.083-.879 11.404-1.724 14.999 2.363 1.908 2.167 2.564 6.194 0 8.269-4.509 3.649-9.494 2.235-14.897 2.544a59.268 59.268 0 00-13.023 2.218c-9.41 2.69-17.077 7.6-25.115 12.991-1.054.707-2.131-.641-1.627-1.628 4.639-9.087 13.63-16.552 22.636-21.102 4.807-2.429 10.067-4.443 15.384-5.368zm83.675-4.07l1.257.257c13.686 2.861 31.464 8.575 37.944 22.018.25 1.901-.01 2.308-.22 2.575l-.07.088c-.18.227-.32.541-1.14.799-.23-.054-.46-.112-.69-.173-2.97-.778-5.33-1.851-7.601-2.964l-2.467-1.215c-2.862-1.404-5.75-2.756-8.81-3.755a103.85 103.85 0 00-20.07-4.432c-1.479-.173-2.903-.672-4.026-1.527a6.047 6.047 0 01-2.252-3.43c-.481-1.934-.343-3.397.694-5.141a6.526 6.526 0 013.178-2.74c1.307-.531 2.794-.656 4.273-.36z" fill="#000"/>
  <defs>
    <filter id="filter0_d" x="0" y="0" width="1745" height="1745" filterUnits="userSpaceOnUse" color-interpolation-filters="sRGB">
      <feFlood flood-opacity="0" result="BackgroundImageFix"/>
      <feColorMatrix in="SourceAlpha" values="0 0 0 0 0 0 0 0 0 0 0 0 0 0 0 0 0 0 127 0"/>
      <feMorphology radius="10" operator="dilate" in="SourceAlpha" result="effect1_dropShadow"/>
      <feOffset/>
      <feGaussianBlur stdDeviation="50"/>
      <feColorMatrix values="0 0 0 0 0.921569 0 0 0 0 0.956863 0 0 0 0 1 0 0 0 1 0"/>
      <feBlend in2="BackgroundImageFix" result="effect1_dropShadow"/>
      <feBlend in="SourceGraphic" in2="effect1_dropShadow" result="shape"/>
    </filter>
  </defs>
</svg>
