<svg width="1745" height="1745" fill="none" xmlns="http://www.w3.org/2000/svg">
  <g filter="url(#filter0_d)">
    <circle cx="872.5" cy="872.5" r="762.5" fill="#FFF3C4"/>
  </g>
  <path fill-rule="evenodd" clip-rule="evenodd" d="M1199.5 755.71c-9.03-24.87-2.24-56.358-20.86-76.938-5.5-3.346-8.42-1.484-10.69 4.35-1.36 7.677-4.57 34.111 6.96 34.099 1.45 16.509.54 33.138-3.01 49.339-8.51-1.364-14.71 3.007-20.91 6.259-4.63 2.424-9.26 4.226-14.85 2.562-23.07-4.067-29.64 20.159-29.92 39.933-.34 9.649-1.25 32.139-5.5 41.501-19.23-39.836-59.63-57.973-98.12-66.928-6.036-1.669-11.185-3.95-15.055-7.848-32.432-12.805-16.851-54.759-31.772-78.871-23.354-28.664-51.4-36.912-86.734-32-30.915 3.419-51.929 34.822-50.023 64.464.571 6.049-3.059 12.411-5.195 18.635-21.339 25.534-54.543 36.958-83.102 52.387-95.255 46.556-128.265 82.134-165.282 181.198-17.317 37.268-38.041 73.448-44.924 114.498-8.087 48.37-8.113 97.89-5.297 146.74-5.257.63.464 38.18 5.074 51.19 1.58 4.46 5.365 7.67 10.082 7.6 9.487 4.61 31.762 23.19 41.685 22.57 32.061-1.97 63.226 1.08 94.115-.5 33.418-1.71 66.514-7.94 100.075-7.13 58.527 1.41 16.624 4.88 77.176 7.63 38.224 1.77 177.677-19.11 215.797-15.7 31 6.52 45.14-4.48 40.41-36.86-1.74-12.42-7.33-40.03 11.04-41.2 8.69 1 15.88 9.69 22.39 14.76 57.5 42.81 116.24 11.99 120.87-58.39 8.72-59.03 20.93-72.97-5.63-131.91-84.03-219.43 42.58-189.618-42.91-292.395-6.67 5.813-4.98-9.7-5.89-13.045z" fill="#EDB98A"/>
  <path fill-rule="evenodd" clip-rule="evenodd" d="M796.009 802.537c54.77 27.934 98.083 41.901 129.939 41.901 31.855 0 87.962 6.504 168.322 19.513l39.68 87.204 87.56 17.107.39 2.279c4.27 24.472 12.42 54.089 26.4 90.609 26.56 58.94 14.35 72.88 5.63 131.91-4.63 70.38-63.37 101.2-120.87 58.39-6.51-5.07-13.7-13.76-22.39-14.76-18 1.15-13 27.69-11.15 40.43l.11.77c4.73 32.38-9.41 43.38-40.41 36.86-38.12-3.41-177.573 17.47-215.797 15.7-60.552-2.75-18.65-6.22-77.176-7.63-33.561-.81-66.657 5.42-100.075 7.13-29.264 1.5-58.776-1.16-89.063.23l-46.737-22.3c-17.286-123.77-14.66-204.93 7.878-243.46 22.425-38.35 52.453-101.384 90.084-189.108a151.02 151.02 0 011.744-1.834l165.931-70.941z" fill="#78E185"/>
  <path fill-rule="evenodd" clip-rule="evenodd" d="M1167.57 677.129c4.58-4.507 11.87-3.386 16.35.621 4.55 4.07 7.29 10.468 9.62 15.983 10.49 24.794 8.05 51.942 13.35 77.883 9.71 5.243 18.47 12.087 24.67 21.294 9.43 13.986 13.9 30.274 9.17 46.849-2.44 8.577-6.59 16.524-9.54 24.918-3.16 8.935-5.1 18.221-6.03 27.657-.91 9.26-1.03 18.571-.77 27.865.14 4.814.4 9.62.65 14.424.23 4.307.99 8.8-.04 13.019l-.12.486c.4-.062.79-.141 1.19-.227 3.38-.754 6.35-1.927 9.88-1.463 2.75.359 4.17 2.652 3.01 5.243a9.4 9.4 0 01-2 2.879c7.09 52.43 19.48 104.01 27.62 156.27 3.7 23.71 5.95 47.49 4.68 71.49l-.14 2.38c-1.29 22.04-4.47 46.33-15.67 65.61-5.23 9.02-12.43 17.03-21.14 22.8-4 2.64-8.27 4.71-12.92 5.74-24.09 9.59-49.56 7.24-72.27-5.44-10.21-5.7-20.4-12.34-28.74-20.59-4.05-4.01-7.96-9.11-10.36-14.69.01 1.26-.22 2.54.03 3.77l.51 2.44c3.78 18.11 18.2 85.07 18.39 90.69.1 3.03-25.42 2.96-28.19 3.05h-.08c-41.34 1.73-82.71.81-124.028-.9l-3.262-.14c-40.071-1.69-83.676-3.97-123.79-5.14l.083-.67c.48-3.61 2.817-19.63 3.077-20.86l.01-.04c1.137-4.58 3.33-18.83 2.175-23.56-2.973-12.18-16.372-9.4-25.8-8.11l-1.986.26c-1.526.21-5.239.76-5.204.8-1.002-1.05 1.381-4.01 1.968-4.8l.47-.65c2.533-3.55 4.824-7.23 4.574-11.8-.609-11.15-16.553-10.52-24.388-9.75-.552.05-.778.92-.142 1.05l1.546.32c4.971 1.06 16.011 3.78 15.762 7.9-.142 2.33-2.63 4.06-4.151 5.53-1.676 1.62-3.341 3.37-4.578 5.36-2.38 3.84-2.921 9.01-.566 13.01 2.717 4.6 7.536 5.14 12.362 4.72l.273-.02c1.062-.1 2.125-.21 3.187-.31l6.371-.62c1.578-.16 6.648-1.48 8.129-.57 2.099 1.3-.425 7.06-.899 8.95l-.025.14c-.407 2.74-.65 31.5-.691 33.4-31.262-.72-62.528-7.67-93.788-6.04-24.835 1.3-49.602 3.54-74.391 5.49l-.625-5.32c-6.871-57.95-17.643-134.4-12.473-191.71.404-4.49-6.6-4.46-7.002 0-5.345 59.26 6.356 138.87 13.163 197.56-10.553.8-21.109 1.53-31.678 2.09l-2.696.13c-35.964 1.8-73.084 1.91-108.28-6.34-1.086-.25-1.453-1.34-1.226-2.24-.35.2-.875.09-1.024-.4-4.1-13.52-6.182-47.93-8.04-62.82l-.125-.98c-1.908-14.46-3.002-29.1-3.79-43.65-1.593-29.12-1.4-58.27.753-87.36 6.853-92.76 34.141-186.475 91.415-261.025 13.846-18.02 29.608-34.509 48.521-47.261 18.554-12.515 39.367-21.329 60.485-28.487 13.96-4.736 28.138-8.788 42.317-12.831.536-.269 1.073-.533 1.613-.794l.811-.387c5.041-2.39 10.003-5.007 15.167-7.134l1.141-.464c7.483-3.001 16.201-5.658 24.301-5.566 13.12-6.608 24.139-16.593 23.071-32.61-.438-6.582 9.89-6.573 10.257 0 .963 17.487-9.81 29.888-23.543 38.211l.066.067.065.073a66.79 66.79 0 006.915 6.792c14.826 12.62 33.581 23.097 52.328 29.993 21.994 8.096 43.97 10.52 66.717 3.975 11.894-3.423 23.123-8.701 33.441-15.527a106.402 106.402 0 009.067-6.705c-2.739-3.745-4.927-7.78-6.765-12.06-3.692-8.612-6.748-20.278-2.976-29.372.928-2.24 4.613-3.623 5.899-.77 3.545 7.807 5.024 16.244 9.155 23.877a59.55 59.55 0 005.417 8.261c0 .14 15.509 2.792 15.509 2.792 18.751-.009 36.401 7.194 52.981 16.191 9.81 5.32 19.44 10.976 29.05 16.641l18.78 11.077c1.38.813 2.93 1.601 4.48 2.442-1.82-8.945-2.7-18.065-2.1-27.106.9-13.635 6.2-28.548 20.25-33.406 6.64-2.302 14.32-1.593 20.78.962 2.97 1.182 6.21 2.749 8.97 4.84 1.34-6.021 6.99-10.537 12.66-12.532a24.66 24.66 0 015.63-1.261c-.06-.966-.06-1.944-.05-2.95l.01-.761c.09-4.463.06-8.927-.04-13.382-.18-8.445-.58-16.716-1.44-25.135-.71-6.97-1.96-13.861-2.88-20.802l-.38-2.984c-.78-5.878-2.09-13.199 2.54-17.743zM603.634 1247.05l-1.565-.93c-5.125-3.02-10.404-5.81-16.613-4.41-5.915 1.33-10.11 6.13-12.315 11.55-1.042 2.55-1.585 5.13-1.987 7.85-.226 1.53-.378 3.07-.646 4.59l-.089.47c-.121.6-.307 1.44-.476 2.17-1.614-.71-3.239-1.83-4.56-2.5l-1.065-.54c-2.5-1.24-5.1-2.43-7.824-3-5.901-1.25-12.447.55-15.82 5.84-2.885 4.52-2.826 9.85-1.722 14.91l.079.36c.479 2.1 2.953 10.52 6.552 9.29 3.5-1.2 3.967-5.85 4.232-8.95l.02-.29c.119-2.34-.344-7.25 2.303-8.14 3.307-1.11 9.671 3.95 12.551 5.28 5.151 2.36 10.809 3.06 15-1.54 3.758-4.13 4.075-10.17 5.048-15.4l.251-1.32c.516-2.65 1.514-6.9 4.456-6.79 2.404.09 5.044 2.58 7.026 3.76a46.513 46.513 0 006.831 3.32c5.54 2.17 11.698 2.86 17.591 2.22 3.414-.37 5.637-2 6.844-5.21.409-.94.72-1.92.936-2.92 1.913-7.19-8.54-12.32-12.395-5.89-4.447-.17-8.586-1.37-12.643-3.78zm643.356-48.07c-3.19-2.27-7.52-1.78-10.36.78l-.17.16c-.79.76-2.57 2.75-3.73 4.49l-.36-.28c-.06-.04-.11-.09-.17-.13l-.15-.13c-2.36-1.99-4.82-3.82-7.85-4.63-7.9-2.12-15.08 3.17-18.53 9.95-1.64 3.21-2.34 6.53-3.15 10l-.07.32c-.33 1.62-.76 4.9-2.17 5.7-.53.29-1.71-.29-2.88-.97-2.66-1.53-5.06-3.5-7.67-5.12-6.13-3.8-13.1-5.37-19.99-2.63-6.81 2.71-11.7 9.12-11.81 16.58-.09 5.51 3.6 15.11 10.53 14.44 1.39-.14 3.18-.99 3.41-2.59.59-4.25-2.76-9.47 1.08-12.98 3.72-3.39 7.57-.54 10.93 1.81l2.41 1.7c3.92 2.71 7.95 5.2 12.9 5.5 6.27.37 12.06-3.09 15.22-8.43 2.85-4.82 2.89-10.28 5.12-15.23.49-1.08 1.75-2.08 1.33-2.58 1.69.88 3.87 3.42 4.92 4.13 5.24 3.54 12.25 3.51 16.85-1.18 1.83-1.87 2.99-4.17 4.35-6.37.49-.79 1.1-1.53 1.55-2.34.16-.3.43-1.42.65-2.42l.34-1.58.04-.26c.29-2.39-.56-4.27-2.57-5.71zm-201.92-20.89c-6.02-3.16-13.45-1.96-18.87 1.87-6.09 4.3-9.07 10.9-11.1 17.87-1.48 5.08-2.19 12.09-6.43 15.76-4.95 4.28-13.229-.26-18.445-1.95-6.311-2.04-13.895-2.87-20.053.15-6.035 2.95-8.943 8.99-9.566 15.45-.582 6.04.283 13.98 3.725 19.03.339.5.985.37 1.2-.15 2.262-5.57 1.826-11.95 3.663-17.71 1.962-6.16 6.558-7.46 12.394-5.8 6.087 1.72 11.661 4.95 17.922 6.1 6.67 1.23 13.28-.03 18.54-4.44 4.43-3.72 7.11-9.12 8.92-14.51 1.77-5.25 2.06-12.27 5.82-16.63.95-1.1 2.6-2.43 4.13-2.57 2.28-.21 3.11 1.48 4.95 2.78 4.86 3.43 12.62 3.5 15.59-2.53.98-1.98 1.46-4.78 0-6.72-2.55-3.38-4.65-3.36-8.02-2.62a2.56 2.56 0 01-.36-.37l-.1-.12c-.9-1.13-2.63-2.21-3.91-2.89zm-238.527-35.6c-.2-4.53-5.658-8.89-9.964-5.72-.695.51-1.379 1.03-2.049 1.56l-.275.3c-.801 0-1.548-.21-2.339-.47l-1.384-.44c-3.634-1.15-7.127-2.08-11.006-1.23-6.673 1.46-10.907 7.22-13.081 13.33-2.026 5.7-1.361 11.51-2.312 17.35-.901 5.53-3.746 7.7-9.088 6.51l-.274-.06c-10.626-2.55-22.732-9.66-32.048.09-10.064 10.54-3.481 27.28 7.535 34.05.482.29 1.014-.19.905-.7-1.464-6.8-5.734-13.3-4.303-20.52.992-5.01 4.471-7.38 9.437-6.58 10.445 1.68 20.214 10 30.927 3.96 5.351-3.02 8.299-8.69 9.632-14.49 1.201-5.23.86-11.13 3.161-16.06 2.517-5.39 6.757-1.48 11.325-.75 6.464 1.05 15.545-2.34 15.201-10.13zm350.407-161.242c.03-4.505-6.98-4.51-7 0-.26 57.082-26.96 109.842-31.76 166.362-.38 4.49 6.63 4.46 7.01 0 4.79-56.53 31.5-109.19 31.75-166.362zm-578.156 93.442c-3.686-4.18-9.086-2.88-13.473-.79-6.589 3.14-12.893 6.67-18.938 10.75-1.487 1.01-.549 3.19 1.201 2.85 4.433-.85 8.748-1.8 13.049-3.19 3.232-1.04 6.596-2.54 9.966-3.08a19.51 19.51 0 01-.769 2.28c-.553 1.53-1.195 3.03-1.741 4.56-1.084 3.06-2.062 6.16-3.01 9.26l-.471 1.56c-1.97 6.5-3.884 15.97 5.207 17.97 3.373.74 6.717-.73 9.855-1.88l.646-.24 11.446-4.05c1.363-.49 3.889-.82 5.02-1.67l-.181.87c-.234 1.15-.464 2.28-.96 3.43l-.277.64c-2.843 6.44-6.428 12.89-3.112 20.02 2.841 6.1 9.556 9 16.028 7.26 6.15-1.64 10.6-8.57 7.416-14.59-1.186-2.25-4.658-3.35-6.864-1.94l-.592.39c-.695.45-1.891 1.23-1.92 1.38-.165.04-.337.08-.512.12.371-1.09.621-2.77.947-3.51l1.198-2.72c2.228-5.11 4.16-10.31 2.459-16.04-4.868-16.42-21.379-7.09-33.558-2.4.177-.7.353-1.38.502-2.05.525-2.38 1.099-4.74 1.668-7.11l1.165-4.88c1.048-4.5 1.865-9.51-1.395-13.2zm623.136-18.33c.01-.38-.47-.68-.8-.46-7.79 5.24-13 16.17-10.07 25.48 1.42 4.52 4.44 8.49 8.68 10.68 5.27 2.73 11.09 1.69 16.64.52l2.35-.5c1.66-.35 3.29-.6 4.98-.14.58.16 1.25.67 1.8.78-.22.38-.47 1.05-.59 1.3l-.4.81c-.4.82-.8 1.67-1.04 2.53-.83 2.88-.63 5.98.72 8.67 2.49 5.01 7.73 7.84 13.19 8.32 3.25.29 11.43-2.56 13.37.89 3.84 6.84 14.78 2.24 12.66-5.34-1.44-5.12-5.52-8.43-10.58-9.81-2.69-.74-5.48-.64-8.21-.34-1.08.12-2.15.28-3.22.4l-.81.07c.21-.01-2.22-.07-3.2-.14l.21-.56c.03-.08.06-.15.08-.2 1.09-2.33 1.9-4.65 1.83-7.25-.12-4.69-3.16-8.79-7.15-11.05-3.67-2.08-8.05-2.91-12.24-2.45-4.59.51-11.13 4.15-15.65 2.24-3.4-1.45-4.56-6.49-4.61-9.8-.08-4.97 1.92-9.69 2.06-14.65zm-317.156-32.63c-12.528-5.63-23.286 3.98-30.637 13.16-.379.48.098 1.28.695.91l.977-.61c6.002-3.77 12.658-8.21 20.096-6.93 6.734 1.16 8.402 5.57 7.061 11.57l-.393 1.69c-1.424 6.18-2.517 12.58 1.031 18.33 3.349 5.43 9.884 7.81 16.005 7.95 7.06.17 13.153-3.12 19.608-5.41l.511-.17c2.741-.95 12.742-3.42 12.88 2.21.065 2.57-2.692 5.6-3.752 7.91-1.387 3.03-2.31 6.21-2.294 9.57.041 8.39 7.038 15.2 15.316 11.13 3.219-1.58 4.048-6.12 2.37-9.03-2.364-4.12-3.321-3.9-1.665-8.22l.478-1.21c2.038-5.2 3.661-10.56 1.371-16.02-4.574-10.9-18.288-12.22-28.086-8.61l-.358.14c-6.098 2.36-24.363 11.82-23.104-1.56.496-5.27 2.096-10.33.977-15.66-1.04-4.95-4.494-9.08-9.087-11.14zm-60.366-44.779c-2.286-4.027-9.964-2.586-9.327 2.526l.203 1.591c.261 2.178.318 4.224-1.187 6.161-1.826 2.35-4.951 3.061-7.788 2.701-6.005-.76-9.835-6.328-16.445-5.028-5.365 1.056-9.07 5.446-11.215 10.232-2.271 5.066-2.223 10.566-3.914 15.786-1.949 6-6.103 5.73-11.291 3.62l-1.117-.45c-4.963-2.07-9.943-4.36-15.474-3.37-9.185 1.63-17.095 15.76-8.489 22.58 1.553 1.23 4.268.59 4.202-1.74l-.008-.44c-.044-4.24 1.025-9.71 5.88-10.71 5.149-1.05 10.966 3.64 15.748 5 12.383 3.5 19.437-5.82 21.54-16.84l.077-.43c.672-3.85 1.202-10.994 5.237-12.801 2.153-.964 4.448 1.407 6.247 2.362 2.794 1.479 5.793 2.429 8.954 2.669 11.694.89 24.983-11.411 18.167-23.419zm292.642-15.226c-3.85-1.669-9.6-.74-10.54 4.289l-.57 3.164c-1.12 6.113-2.9 13.755-8.91 15.957-3.76 1.377-8.07-1.036-11.44-2.507-4.05-1.769-8-3.286-12.43-3.706-9-.852-15.7 4.351-18.88 12.484l-.27.724c-2.57 6.83-6.04 19.9-.42 25.45.82.8 2.47 1.2 3.48.44 3.32-2.49 4.16-6.58 5.3-10.42l.1-.33c1.21-3.98 2.2-8.37 4.38-11.964 4.06-6.675 14.65.947 19.75 2.704 8.36 2.89 17.04 1.2 23.43-4.979 4.04-3.906 6.43-8.85 8.07-14.083 1.05.542 2.14 1.011 3.31 1.328 4.46 1.209 9.76.571 13.16-2.81 6.37-6.346 2.91-17.73-6.81-15.89-1.92.363-3.17 2.192-3.4 4.06l-.13.295c-2.45-.808-5.12-3.318-7.18-4.206zm-450.653-56.699c-9.086-9.348-24.854-4.281-31.069 5.635-1.289 2.056.84 4.663 3.103 4.038 5.41-1.491 13.043-7.358 18.76-3.624 4.238 2.769 1.933 10.004 1.545 14.052l-.056.603c-.49 5.51-.602 13.049 3.69 17.174 2.47 2.374 6.259 2.053 9.517 1.714l1.035-.107c3.841-.386 7.656-1.064 11.334-2.245 3.382-1.085 6.586-2.56 9.764-4.122l.794-.393c1.406-.697 6.096-3.464 7.501-1.725.733.906-1.083 4.878-1.46 5.764-1.425 3.331-3.236 6.467-4.543 9.858-2.303 5.973-2.495 12.712.739 18.413 3.133 5.523 9.922 9.998 15.939 5.755 3.445-2.43 3.435-6.849 0-9.281-1.818-1.286-3.651-2.134-4.402-4.293-.98-2.814.282-5.799 1.503-8.404l1.461-3.099c3.239-6.92 6.474-14.879 1.95-21.952-4.672-7.304-14.167-7.419-21.35-4.377-4.099 1.736-7.84 4.065-12.112 5.409a47.28 47.28 0 01-8.95 1.892c-.674-3.643.28-7.72.29-11.339.016-5.497-1.008-11.257-4.983-15.346zM1134.95 776.99c-15.34-2.249-22.76 11.465-23.82 24.672-.95 11.99.99 24.015 4.03 35.674 1.14 4.323 2.42 8.594 3.75 12.795 2.16 6.748 4.49 13.487 7.34 19.981.87 1.96 1.74 3.929 2.72 5.82 3.36 2.753 6.23 6.461 8.84 10.025l1.72 2.354.46.635c4.44 6.074 8.23 12.375 11.32 19.228 2.96 6.527 5.15 13.331 6.86 20.277l.42 1.734c1.31 5.345 3.25 11.726.91 16.7 4.59 1.417 9.16 2.704 14.04 3.386 6.74.946 13.75 1.007 20.55.762 6.58-.241 13.14-.754 19.68-1.451l4.71-.519c.49-.055.98-.113 1.47-.174a3.07 3.07 0 01-.46-.761c-1.68-4.026-1.46-8.695-1.65-13.025l-.02-.48c-.24-4.804-.39-9.61-.45-14.424-.12-9.032.13-18.09 1.12-27.078.85-7.868 2.19-15.737 4.29-23.377 2.1-7.746 5.33-15.019 8.3-22.458 2.94-7.351 5.37-14.904 5.1-22.921-.16-5.094-1.28-10.048-3.18-14.73-.09.07-.2.122-.34.114-5.96-.219-11.6-1.943-17.36-3.396-6.11-1.548-12.37-2.818-18.61-3.571l-1.33-.155c-5.21-.585-10.89-.87-15.7 1.363-5.2 2.425-8.49 7.816-10.46 12.988l-.23.596c-3.51 9.805-2.7 22.893 8.16 27.533 3.37 1.444 11.07 2.328 12.8-2.241.78-2.083-.82-5.162-1.43-7.132-.71-2.346-1.17-4.657-1.12-7.107.04-2.149 1.69-3.771 3.78-3.944l.19-.012c3.79-.165 11.63-4.541 12.39 1.759.15 1.225-.79 2.512-1.78 3.108a21.071 21.071 0 01-6.25 2.45c.3 1.312.72 2.599 1.13 3.877.25-.123.52-.201.81-.228 3.21-.262 6.39.246 9.6.28l1.75.013c2.5.024 4.67.158 7.09 1.449 2.23 1.19 1.84 4.175 0 5.452-4.82 3.344-12.99 1.383-18.01-2.013.22 1.725.11 3.484-.62 5.33-2.18 5.48-8.4 8.21-13.96 8.446-4.95.21-9.68-1.348-13.62-4.078-.81 2.879-2.1 5.645-2.66 8.63-.74 3.92.14 8.506-1.23 12.191-1.36 3.712-6.64 6.196-9.7 2.555-4.47-5.321-3.08-13.749.85-19.14 2.1-2.853 5.89-6.127 9.76-6.643-2.68-2.529-4.84-5.654-6.19-9.102a.494.494 0 01-.34.017c-12.57-3.438-19.42-14.834-19.84-26.798-.93.665-1.89 1.261-2.89 1.794-2.41 1.296-5.5.157-6.24-2.53-.69-2.503 1.3-5.591 4.09-5.382 1.59.131 3.2.14 4.78-.123.22-.035.43-.078.65-.122a29.1 29.1 0 01.55-2.748c-4.75.542-9.72-.237-14.32-1.252-3.96-.866-3.04-7.159.95-7.01l.64.028c5.22.251 12.93 1.094 17.41-2.216a28.53 28.53 0 012.61-3.23c.12-.254.23-.524.32-.805 2.41-6.932-8.99-10.887-14.13-11.64zm-137.647 97.514c-5.969-1.596-12.252.579-16.357 5.086-3.45 3.789-5.237 8.441-6.834 13.197l-.911 2.736c-1.328 3.874-2.852 6.948-7.595 5.471-6.079-1.893-11.349-5.191-17.959-4.931-6.009.237-11.89 2.822-16.073 7.154-4.279 4.431-6.323 10.605-5.414 16.688l.059.372c.474 2.803 4.572 12.805 8.917 8.2 1.938-2.053 1.556-4.326 2.016-6.935.438-2.486 1.374-4.923 2.909-6.939 2.72-3.572 7.095-4.965 11.372-3.701 5.642 1.667 10.624 5.104 16.702 5.185 6.393.086 11.821-3.23 15.347-8.434 2.847-4.202 3.862-9.12 5.866-13.689l.193-.435c1.682-3.76 2.828-5.117 6.681-3.319l1.346.645c5.772 2.741 12.252 5.25 18.222 1.385 5.54-3.589 7.9-10.802 3.24-16.055-2.57-2.899-8.52-2.406-10.19 1.314-.3.64-.57 1.288-.84 1.939-.51-.156-1-.345-1.47-.609-3.13-1.41-5.84-3.42-9.227-4.325zm-174.269-42.465c-6.81-3.669-12.495 3.548-11.407 10.066l.053.285c.04.197.132.626.246 1.118a8.027 8.027 0 01-1.034-.191l-1.582-.193c-2.487-.289-4.898-.44-7.387.359-5.875 1.885-8.764 7.595-8.906 13.448-.141 5.832 2.877 10.537 3.763 16.108.907 5.698-4.991 4.071-8.841 3.654l-.151-.016c-5.356-.541-10.987-.551-15.438 2.94-4.598 3.605-6.634 9.835-5.985 15.538.586 5.152 3.81 13.08 9.649 13.894.577.081 1.233-.046 1.529-.622 2.361-4.591-.924-9.661-.553-14.506.409-5.327 3.805-6.214 8.489-5.869 4.545.335 9.078 1.299 13.567-.057 4.87-1.472 8.404-5.65 9.403-10.579 1.102-5.432-.923-10.487-2.237-15.65-.437-1.714-.651-3.439-.35-5.192.065-.379.394-.729.513-.879.747-.14 1.866.218 2.506.286l.907.09c4.932.445 9.683.147 13.207-3.928 1.806-2.088 2.473-4.64 2.293-7.333l-.091-1.088c-.096-1.046-.28-2.427-.824-3.002l-.007-.028c.182-.245.355-.497.514-.758l.153-.265c1.511-2.518.635-6.21-1.999-7.63zm348.866-63.88c-6.78 0-13.19 2.214-18.32 8.244 1.83 1.742 3.29 3.764 4.1 6.136a37.565 37.565 0 017.89-3.212c8.31-2.32 19.67-2.285 26.65 3.413 3.66 2.976-.36 8.314-4.3 7.395-3.52-.822-6.59-2.345-10.29-2.52-3.21-.158-6.36.262-9.44 1.19-4.7 1.419-8.97 4.105-12.11 7.807a22.817 22.817 0 00-2.74 4.044c-5.87 11.132-1.45 27.096 6.65 36.259-3.18-10.555-.01-23 6.32-31.743 7.61-10.527 19.01-11.72 31.01-10.077l.4.055c11.61 1.638 25.99 4.499 34.67 13.032a48.429 48.429 0 00-2.98-5.724c-6.58-10.835-17.5-19.289-28.82-25.319a98.949 98.949 0 00-5.73-2.845c-7.25-3.334-15.34-6.135-22.96-6.135zm3.71-82.689l-.03.123c0 .023-.01.046-.01.069-.4 3.559.54 7.644 1.02 11.236l.07.51c1.02 8.174 2.35 16.357 2.79 24.593.43 7.92.26 16.134-.69 24.02l-.14 1.124c-.56 4.298-.89 9.339-2.34 13.75 5.58.534 11.16 2.328 16.24 4.237 1.82.69 3.63 1.417 5.43 2.188-2.25-12-3.46-24.174-5.91-36.138l-.48-2.381c-2.67-13.235-5.17-26.555-12.05-38.395-.92-1.575-1.91-2.897-3.03-4.306-.25-.323-.54-.533-.87-.63z" fill="#000"/>
  <path fill-rule="evenodd" clip-rule="evenodd" d="M1032.89 423.435c-1.95-4.906-5.38-11.071-11.13-11.317-4.44-13.588-15.49-27.426-30.864-27.058-45.115-46.136-101.912-43.961-161.295-34.194-31.328 5.81-63.139 17.188-86.506 39.64-27.985 26.433-38.882 72.555-16.967 105.98-18.94 10.15-19.308 34.236-11.208 51.616-9.737 6.733-10.328 23.075.635 28.211-.583 2.387-.17 4.855.941 6.977-5.436 4.525-12.511 7.867-18.36 10.74-2.585 1.27-4.077 3.345-4.696 5.682-19.206 12.6-67.095 43.391-66.524 67.898-.282 12.785 9.201 21.199 20.726 24.549-6.857 13.709-12.062 29.72-5.498 44.508 1.814 4.468 15.408 17.599 16.093 17.841 1.196 1.026 20.698-7.928 30.176-12.495 1.838 11.956 14.623 18.22 25.642 14.123 10.449-3.15 16.872-11.996 23.463-20.042 8.747 19.082 34.484 19.301 51.119 11.074 14.938-6.901 26.294-19.549 32.62-34.791 33.592 16.444 72.894 21.238 109.39 14.67 2.342 4.145 7.527 6.929 12.145 5.325 19.407-5.834 40.865-6.161 57.318-19.528 34.29-24.612 37.17-69.986 34.78-108.664-2.12-38.564-.26-77.449-7.27-115.597 3.04-11.231 8.1-21.16 12.78-31.712 5.09-11.064 4.98-27.512-7.51-33.436z" fill="#EDB98A"/>
  <path fill-rule="evenodd" clip-rule="evenodd" d="M877.218 346.887l1.332.005c2.204.014 4.404.058 6.598.13 11.597.382 23.69 1.886 37.307 4.461l2.07.398c3.387.663 6.421 1.328 11.26 2.459l9.604 2.263c4.89 1.139 8.489 1.928 11.81 2.562l.434.082s25.593 12.267 33.858 20.337l.825.812.351.35 3.593.114.035.454.031.004c3.568.555 6.794 2.403 9.794 5.28l.32.312.31.31c2.34 2.378 4.21 4.913 6.78 8.93l.58.918 1.04 1.657.85 1.331c.55.87 1.08 1.731 1.58 2.584l.5.851.36.625 9.28 5.412c1.34.78 2.56 1.789 3.67 2.998l.3.335.3.344 2.52 3.008-.51.531.25.324.44.604.43.613.42.621.18.273.27.589.14.294.1.242.32.163.64 1.163c3.35 6.035 5.15 12.889 5.27 19.932.09 4.858-.51 9.27-1.94 13.526-.98 2.943-2.3 5.255-4.58 8.439l-1.8 2.472-.37.51-.44.621-.21.295c-2.93 4.245-27.98 12.28-43.374 12.668l-.463.01-.593.006a48.9 48.9 0 01-4.257-.161c-5.923-.495-11.46-1.742-17.893-3.78l-1.335-.431-7.088-2.381a40.305 40.305 0 00-.533-.174l-.648-.203c-1.56-.479-2.695-.754-3.468-.854l-.157-.019-.016.294-.006.276.001.225c.045 3.262-1.936 5.64-5.009 7.155-1.957.965-4.478 1.654-7.644 2.171l-.505.081c-5.173.799-11.342 1.14-21.663 1.374-.393.009-.789.004-1.189-.014-2.216-.102-3.957-.479-7.195-1.409l-1.53-.439-.83-.229c-1.539-.416-2.397-.582-3.207-.628l-.236-.009-.234-.004c-.972-.002-1.675.215-2.367.743l-.354.283-4.758 3.986c-.62.516-1.175.973-1.582 1.297l-.166.131c-6.53 5.12-12.757 8.045-20.092 8.324l-.491.014-.511.006c-.373.001-.747-.006-1.122-.02-3.089-.118-6.295-1.263-10.674-3.471l-.907-.464-.635-.331c-.325-.171-.663-.35-1.03-.547l-3.266-1.747-1.67-.873c-1.994-1.025-3.106-1.52-3.855-1.724l-.122-.032-.07.067c-1.732 1.692-3.219 3.82-4.819 6.759l-.241.447-.35.666-2.272 4.523-.429.842c-1.687 3.264-3.021 5.351-4.768 7.182-2.534 2.657-5.603 4.199-9.363 4.446l-.379.021-.448.011c-1.771.017-3.647-.255-5.682-.82l-.473-.136-.46-.141c-3.032-.957-7.824-.361-11.63 1.659-4.133 2.193-6.409 5.541-6.308 9.818.05 2.125.295 4.403.724 6.872l.122.678c.564 3.052 1.329 6.114 2.507 10.199l2.533 8.545.286.997.286 1.026a78.89 78.89 0 011.01 4.021c1.034 4.687 1.206 8.206.17 11.205-4.569 13.221-12.498 20.244-21.523 20.541l-.312.007-.386.001c-6.934-.075-13.217-4.593-13.141-10.446a4.786 4.786 0 01.328-1.701l.092-.219.045-.093-.072-.175c-2.131-5.101-7.06-8.825-12.847-9.555l-.328-.038-.325-.032a19.582 19.582 0 00-.935-.057l-.294-.007-.352-.003c-7.713.012-15.345 5.147-21.349 13.545a46.85 46.85 0 00-3.458 5.684l-.343.678-1.67 3.415-1.127 3.302c-6.213 18.186-3.067 37.216 9.059 47.055l.37.295c4.369 3.425 9.506 5.508 14.992 6.068.631.065 1.266.106 1.877.122l.454.008.52-.002c1.788-.023 3.497-.246 5.033-.66 1.252-.338 2.124-.748 2.731-1.272a4.01 4.01 0 00.398-.386l.093-.111.035-.047 8.288 1.229c1.41 8.948 5.482 18.22 12.106 28.852l.418.667.728 1.146.74 1.148c7.795 11.989 16.488 22.084 26.044 29.831l.668.536.895.71.822.644c1.597 1.239 2.927 2.204 4.258 3.065l.334.213 3.142 1.991-1.459 3.422c-3.404 7.984-8.101 15.242-13.89 21.422l-.546.576-4.024 4.15-3.095-3.94c-.023-.03-.093-.068-.175-.083l-.056-.007h-.032l-.042.004-.05.014-.05.022c-2.317 1.256-3.589 2.216-5.417 4.096l-.266.275-.308.325-.426.443c-1.899 1.946-3.929 3.603-6.141 4.983-5.11 3.184-10.782 4.954-16.655 5.114l-.552.01h-.555a29.954 29.954 0 01-.598-.011c-12.254-.339-23.234-8.19-28.632-19.696-.214-.457-.411-.606-.774-.636l-.104-.005-.129-.002c-.9.006-2.003.542-2.618 1.261l-.11.137-2.066 2.776-.792 1.048c-7.369 9.674-13.419 14.966-21.546 16.573a13.65 13.65 0 01-2.035.235l-.436.018h-.255c-3.495.01-7.523-1.003-10.662-2.786-4.152-2.358-6.72-5.985-6.394-10.48l.024-.288.058-.481c.271-2.399-1.649-3.703-3.12-2.525l-.099.084-.121.11c-6.055 5.678-13.019 10.034-20.519 12.723l-.663.233-.986.336c-4.73 1.596-8.066 2.388-11.578 2.45-3.039.052-5.567-1.044-7.395-3.152-1.219-1.406-1.964-2.968-2.708-5.248l-.124-.386-.271-.887-.169-.576c-2.176-7.657-2.223-15.844-.514-24.878 1.276-6.747 3.308-13.266 6.724-22.403l.663-1.761 1.368-3.594c.138-.36-.684-1.619-1.193-1.76l-.059-.011-.465.049c-.325.031-.653.053-.989.066l-.512.012h-.335c-11.097-.113-19.573-10.996-19.495-22.523.086-10.799 5.516-20.084 15.885-31.105l.901-.95.975-1.009.963-.986c9.214-9.381 18.633-17.57 28.441-24.593l.813-.579.904-.638c3.303-2.317 6.514-4.419 10.958-7.181l2.617-1.615 10.603-12.512c.255-.144.505-.288.752-.432l.135-4.34 10.216.21c-2.593-1.33-4.74-2.943-6.485-5.011-5.798-6.876-5.071-16.428 1.98-21.121l.248-.162 2.972-1.835 2.432 2.134c2.119 1.858 4.366 3.09 6.709 3.659l.37.084 1.834.389.356.578.207-.3a.298.298 0 00-.017-.088l-.018-.043-.039-.059-.231-.284-.255-.305c-.815-.959-1.731-1.889-3.393-3.49l-1.167-1.121-.908-.884c-2.382-2.34-3.651-3.789-5-5.802-3.357-5.008-5.253-10.655-5.332-16.391-.165-11.927 7.254-23.203 18.247-28.35.384-.18.669-1.461.207-2.308-10.644-19.53-13.598-42.94-8.251-64.717 4.989-20.318 17.401-38.252 35.17-51.99 30.505-23.585 72.821-35.747 117.719-36.166l1.361-.009h1.307z" fill="#ECDCBF"/>
  <path fill-rule="evenodd" clip-rule="evenodd" d="M714.088 587.126c2.021-.507 3.106 2.209 1.391 3.3-10.891 6.927-22.142 13.114-32.663 20.651-10.006 7.165-19.249 15.327-27.868 24.103l-.955.977c-7.792 8.016-16.421 18.214-16.509 30.039-.067 9.191 7.019 19.224 16.906 18.016 3.725-.455 7.149 4.271 5.849 7.678l-1.367 3.591c-5.501 14.533-11.098 30.999-6.753 46.288l.16.546c1.051 3.501 2.159 6.595 6.222 6.525 3.772-.067 7.696-1.339 11.227-2.552 7.326-2.52 13.965-6.722 19.601-12.007 4.984-4.673 11.353.075 10.682 6.015l-.024.19c-.918 6.665 9.701 9.76 14.528 8.807 9.532-1.885 16.328-11.435 21.741-18.716 2.602-3.498 8.922-4.876 11.208 0 4.53 9.658 13.868 16.876 24.791 17.179 5.674.157 11.118-1.458 15.924-4.453 1.961-1.223 3.715-2.677 5.324-4.326l.399-.416c2.381-2.523 4.024-3.865 7.064-5.513 2.996-1.623 6.871.39 6.853 3.932-.025 4.588-1.369 7.638-4.533 10.965-2.617 2.756-5.728 5.175-8.998 7.109-6.571 3.882-14.383 6.066-22.033 5.814-12.058-.4-23.568-6.41-31.029-15.757-7.618 9.108-17.068 17.477-29.348 17.252-9.193-.168-17.76-4.953-21.865-12.368-5.795 3.995-12.155 7.119-18.959 9.159l-.606.179c-9.631 2.803-20.714 3.917-26.913-5.644-5.82-8.976-6.254-21.406-4.92-31.667 1.191-9.165 4.011-17.869 7.249-26.453-9.217-2.753-16.372-11.411-18.83-20.745-3.718-14.113 3.495-27.8 12.411-38.287 9.686-11.392 21.877-21.027 34.159-29.46 12.249-8.41 25.972-16.313 40.484-19.951zm314.962-110.391c.02-.392.66-.53.72-.099 4.23 30.7 6.68 61.339 8.71 92.25 1.03 15.66 2.2 31.304 3.47 46.945 1.23 14.998 3.27 30.396 2.81 45.456-.72 23.581-12.17 42.755-30.95 56.553-17.991 13.224-40.311 19.762-62.209 22.524-12.718 1.604-25.612 1.681-38.344.174-6.612-.783-13.216-1.825-19.693-3.389l-2.8-.701c-5.1-1.302-10.795-3.07-11.522-9.112-.353-2.925 1.201-5.084 3.711-6.552 3.273-1.915 7.025-.788 10.397.085 5.683 1.47 11.426 2.732 17.233 3.605 12.475 1.876 25.298 1.987 37.836.688 21.091-2.186 43.339-9.026 59.601-23.154 7.07-6.139 13.21-13.619 16.44-22.506 4.16-11.425 3.54-23.889 3.4-35.853-.32-27.818-.03-55.636-.42-83.457-.39-27.906-.05-55.592 1.61-83.457zM816.956 346.728c24.644-6.356 49.655-8.007 74.969-6.094 23.873 1.803 51.068 7.144 70.566 21.828.946.712.38 2.061-.791 1.874-13.035-2.077-25.742-5.857-38.721-8.357-12.484-2.405-25.193-4.211-37.904-4.629-42.992-1.417-90.83 8.325-125.496 35.128-16.256 12.567-28.661 29.466-33.598 49.572-5.063 20.622-2.323 42.924 7.844 61.579 1.464 2.686.86 6.935-2.194 8.365-9.269 4.339-15.87 13.953-15.727 24.326.069 5.032 1.804 9.857 4.591 14.016 2.948 4.398 7.435 7.475 10.732 11.582 1.298 1.618 1.348 3.845.32 5.335 1.928.844 4.007 1.298 5.905 2.295 1.608.847 1.654 3.489 0 4.322-4.184 2.107-8.707-.129-11.53-3.526a16.327 16.327 0 01-1.338-1.882c-3.381-.716-6.411-2.413-9.057-4.735-5.041 3.019-5.732 9.739-1.401 14.874 2.211 2.621 5.353 4.239 8.529 5.402l.381.138c3.09 1.097 5.921 1.71 7.929 4.182 1.324-2.76 2.844-5.362 4.538-7.733 6.161-8.618 15.631-16.264 26.867-15.293 8.802.759 16.428 7.06 18.232 15.754.133.644-.837 1.146-1.126.475-4.223-9.847-17.584-10.209-25.543-5.077-9.361 6.035-14.476 17.408-16.529 28.001-2.02 10.434-.852 23.124 6.957 31.061 3.196 3.248 7.543 5.494 12.08 6.085 2.218.291 4.174.005 6.295-.422l1.406-.294c.975-.201 1.944-.364 2.967-.274l1.524.205.865.405c.751.337.683.245-.203-.278 2.589-.212 3.927 1.701 4.069 3.799.082.053.162.11.228.191 9.825 12.024 17.12 25.844 27.546 37.474l3.053 3.407c7.846 8.728 16.804 18.191 27.463 22.719l1.268.524c3.101 1.31 6.215 3.103 6.611 6.841.354 3.349-2.285 5.868-5.328 6.65-6.93 1.777-14.83-4.381-19.905-8.422-10.914-8.687-20.086-19.76-27.661-31.41l-.749-1.161c-6.227-9.724-12.079-20.815-13.898-32.357l-.328.532a1.233 1.233 0 01-.056.083c-.371.504-.78.93-1.254 1.338-1.274 1.1-2.829 1.742-4.443 2.178-3.031.818-6.354.979-9.47.661-6.329-.647-12.244-3.056-17.247-6.978-15.232-11.946-17.03-34.174-10.87-52.208-5.055 1.207-10.813-2.195-14.76-5.11-4.527-3.345-8.259-8.174-9.151-13.854-.886-5.636 2.708-13.1 8.038-15.275-5.531-6.64-8.751-16.063-9.083-23.608-.578-13.125 6.395-25.53 17.1-32.691-10.067-21.575-12.007-46.605-5.228-69.512 13.451-45.458 58.51-70.878 101.716-82.021zm-38.352 345.376l.126-.399c1.072-3.516 2.457-10.508 7.709-7.846 5.017 2.542 1.814 10.068.059 13.732-2.099 4.384-5.725 7.899-10.595 8.84-3.961.766-8.311-.218-11.082-3.278-.808-.892-1.264-1.871-1.742-2.951-.187-.42-.271-.708-.306-.895-.045.206-.175.512-.506.873-2.21 2.415-4.299 5.227-5.903 8.085-.38.675-1.577.202-1.274-.538 1.868-4.57 1.554-11.637 5.719-14.943 3.671-2.914 7.121-.62 9.063 2.773l.099.177c2.838 5.153 7.361.259 8.633-3.63zm-39.935-16.513l.384-.533c3.925-5.365 10.545-11.818 17.169-6.829 2.107 1.587 2.185 4.235 0 5.81l-.826.59c-2.894 2.052-5.776 3.989-7.901 6.931-2.31 3.199-4.384 6.586-7.489 9.096-5.492 4.437-14.368 5.312-19.133-.67l-.469-.594a18.396 18.396 0 01-1.227-1.748l-.29.401-.079.114-.066.102c-1.959 3.13-4.433 5.707-7.515 7.741-5.857 3.864-12.457 4.402-19.083 2.356-.648-.201-.474-1.07.153-1.128 7.852-.733 15.502-6.311 18.696-13.494l.36-.806c1.293-2.857 2.74-5.572 5.933-6.694 3.108-1.093 6.371.061 8.502 2.412 1.782 1.965 2.24 5.871 5.455 5.009 3.52-.943 5.502-5.351 7.426-8.066zm-22.488-47.719c1.739-1.322 4.462.096 4.941 2.011 2.17 8.67-6.841 18.886-15.501 19.155-2.229.068-4.373-.471-6.347-1.503-1.532-.8-3.345-2.845-5.026-3.183-2.171-.437-4.095 2.455-5.624 3.939-1.896 1.842-3.773 3.553-5.898 5.123-.849.627-2.166-.427-1.807-1.39l.719-1.916c2.601-6.819 7.083-16.774 15.469-13.945 4.11 1.387 7.202 6.062 11.529 2.36 3.465-2.964 3.788-7.797 7.545-10.651zm37.002-34.903c7.818-8.974 26.197-4.234 29.682 6.684.77 2.411-.033 5.545-1.917 7.252-2.481 2.249-6.02 2.929-9.033 1.166-2.592-1.517-3.656-3.999-5.562-6.128-2.794-3.12-6.595-4.852-10.512-6.093a11.272 11.272 0 00-2.708 2.006c-.418.418-1.208-.155-.837-.646a11.292 11.292 0 011.821-1.879l-.337-.098c-1.031-.288-1.254-1.508-.597-2.264zm50.812-99.085c1.752.002 3.793 1.648 3.569 3.569l-.067.533c-.505 3.657-1.68 5.728-5.341 7.428-3.106 1.439-6.368 2.235-9.773 2.55a24.518 24.518 0 01-4.034.024l-.291 1.678c-.578 3.358-1.113 6.718-1.213 10.14-.188 6.345 2.18 11.573 4.719 17.237 4.874 10.881 5.422 21.742.115 32.607-.776 1.589-2.974 2.884-4.747 2.723-2.299-.208-3.41-.874-4.747-2.723-1.123-1.553-.866-3.748-.088-5.372l.088-.178c2.674-5.18 3.517-11.032 2.151-16.727-1.283-5.351-4.189-10.161-5.487-15.497-2.115-8.691.137-17.311 4.538-24.767-3.322-.957-6.394-2.662-8.443-5.262l.008-.003c-.782-.836-.355-2.582 1.018-2.477l1.553.125c4.442.372 8.532.758 13.024-.481 2.303-.635 4.29-1.694 6.267-2.977l.424-.278c2.473-1.644 3.845-1.876 6.757-1.872zm10.632-64.234c11.136-.633 20.643 6.716 25.265 16.499 5.02 10.621 2.914 22.808-1.517 33.258l-1.259 2.925c-2.204 5.067-5.097 11.093-9.61 13.812-5.069 3.054-9.451-.488-7.956-6.118.891-3.353 3.302-5.939 5.253-8.707 1.82-2.584 3.519-5.259 5.008-8.049 2.918-5.472 5.097-11.568 5.073-17.837-.041-11.443-7.601-24.556-20.257-24.388-.904.011-.89-1.345 0-1.395zm56.322-18.463c-.694-.527-.074-1.699.702-1.204 12.914 8.213 22.556 23.64 24.497 38.796 1.078 8.409.255 17.395-3.326 25.156-2.054 4.453-5.58 8.704-10.509 9.925-4.532 1.121-9.203-1.467-10.609-5.891-.545-1.716.393-3.511 1.81-4.448 4.595-3.038 8.294-6.871 10.458-12.028 2.252-5.362 3.15-11.051 3.177-16.835.067-13.543-5.338-25.216-16.2-33.471zm157.751 5.87c-.6-.662.15-1.639.94-1.224 9.34 4.91 15.27 14.315 16.97 24.615 1.66 10.084-.58 23.812-8.38 31.105-4.41 4.117-12.3-1.358-8.64-6.661 2.59-3.739 5.38-6.819 6.85-11.238 1.32-3.943 1.79-7.919 1.72-12.062-.16-9.039-3.39-17.796-9.46-24.535zM914.554 404.43c15.95-.76 25.617 17.448 27.831 31.02 1.367 8.386.34 17.022-4.29 24.295l-.274.423c-3.82 5.81-10.765 12.5-18.249 9.749-3.167-1.164-4.01-4.557-1.882-7.131 3.255-3.94 8.288-5.546 11.349-9.753 3.435-4.718 4.56-10.629 4.361-16.367l-.027-.634c-.532-10.554-5.566-30.812-18.819-30.453-.743.019-.735-1.115 0-1.149zm49.892-3.026c15.428-1.972 24.824 16.178 27.722 28.681 1.809 7.817 2.205 16.536-.11 24.294l-.172.553c-1.885 5.79-7.444 15.71-14.702 12.751-1.988-.81-4.018-3.018-3.066-5.399 1.216-3.043 2.971-3.832 5.309-5.78 1.801-1.499 3.059-3.651 3.985-5.771 2.466-5.649 3.016-12.249 2.679-18.337l-.046-.721c-.872-11.891-7.32-29.612-21.599-29.286-.652.015-.607-.908 0-.985zm28.246-17.063c8.588-3.27 15.618 4.94 20.558 10.8 6.18 7.342 11.79 15.251 14.96 24.391 2.83 8.144 3.32 17.199.78 25.489-1.26 4.104-3.22 7.911-5.9 11.261l-.34.422c-2.79 3.399-5.48 5.487-10.05 4.271-1.85-.497-2.64-2.334-2.32-4.089.69-3.751 2.62-4.726 5.13-7.344 2.21-2.31 3.84-5.154 4.95-8.145 2.27-6.169 2.39-12.853.86-19.209-1.71-7.115-5.07-13.685-8.95-19.842l-.84-1.319c-4.12-6.509-9.99-16.534-18.675-15.477-.743.091-.753-.985-.163-1.209z" fill="#000"/>
  <path fill-rule="evenodd" clip-rule="evenodd" d="M954.272 675.227c-6.447 1.868-13.367 2.035-19.939.106-5.961-1.749-12.082-5.599-16.469-10.693-3.897-4.525-6.421-10.025-6.322-15.895a2.59 2.59 0 01.62-1.664 2.895 2.895 0 011.545-.928 2.838 2.838 0 011.807.157c.498.226.924.61 1.191 1.172.674.885 1.346 1.758 2.02 2.606 5.421 6.694 10.671 11.697 18.822 13.491 4.423.974 8.84.542 12.893-.944 4.339-1.59 8.261-4.386 11.334-7.964 1.389-1.617 3.029-2.277 4.632-2.288 1.817-.013 3.613.832 4.966 2.181 1.33 1.326 2.22 3.129 2.301 5.014.071 1.655-.469 3.384-1.905 4.926-4.731 5.08-10.862 8.802-17.496 10.723zm-.199-83.837c6.609 4.017 16.679 13.385 9.57 23.344-8.369 8.781-20.419-1.287-26.356-5.841-5.506-3.529-11.692 5.547-6.584 9.668 42.906 31.766 60.318-26.121 26.713-31.894-3.7-.637-5.074 3.48-3.343 4.723zm-61.824-17.677c-2.124-1.358-4.623-1.824-7.392-.564-2.164.984-5.959 4.264-8.601 8.577-1.807 2.951-3.089 6.412-2.822 10.017.062.838-.247 1.455-.735 1.912-.386.36-.942.625-1.596.708a4.148 4.148 0 01-1.682-.151c-.961-.3-1.47-.923-1.662-1.432-1.849-4.912-1.052-10.393 1.021-15.338 2.797-6.674 7.877-12.264 11.205-14.066 5.696-3.085 12.415-3.227 18.119-.084 4.855 2.675 7.891 6.993 10.91 11.396.642.936 1.279 1.865 1.937 2.777 1.32 1.829 1.451 3.643.94 5.198-.566 1.723-2.009 3.177-3.814 3.938-1.668.703-3.605.802-5.318.079-1.447-.61-2.776-1.8-3.616-3.819-1.416-3.401-3.774-7.153-6.894-9.148zm107.881 7.566c-1.453.758-2.591.986-4.205.503a5.99 5.99 0 01-2.465-1.472c-.684-.685-1.178-1.536-1.37-2.48-.472-2.33-1.746-4.511-3.563-5.933-1.553-1.215-3.513-1.859-5.687-1.496-2.346.392-4.581 1.896-6.12 3.67-.515.594-.918 1.268-1.324 1.937-.758 1.252-1.495 2.416-2.541 3.336-.397.35-.994.592-1.573.592-.235 0-.474-.038-.701-.109-2.335-2.344-2.784-4.121-2.709-5.885.079-1.849.808-3.721 1.986-5.468 2.764-4.098 8.011-7.457 11.551-8.218 4.849-1.042 9.665.208 13.526 2.917 3.973 2.786 6.915 7.113 7.835 11.989.22 1.174.13 2.442-.32 3.541-.44 1.074-1.2 1.993-2.32 2.576zm-97.186-51.254c-2.91 2.836-6.355 3.275-9.839 3.665-1.936.22-3.482.396-5.002.739-4.181.944-8.313 2.365-12.083 4.412-3.94 2.14-8.235 4.72-11.324 8.026-.735.786-1.428 1.612-2.121 2.439-.633.754-1.242 1.481-1.884 2.181a65.783 65.783 0 00-2.134 2.488c-.43.709-.515.884-.602 1.065-.131.273-.282.579-.456.906-.237.449-.515.94-.807 1.386-.484.814-.744 1.038-.969 1.138-.373.166-.726.248-1.07.204-.321-.042-.624-.196-.924-.449-1.494-1.262-1.934-3.334-1.889-5.533.069-3.337 1.299-7.032 2.434-9.303 2.638-5.277 6.297-10.763 10.696-14.702 5.021-4.495 10.513-7.899 16.821-10.244 3.921-1.458 8.46-2.797 12.731-2.628 3.074.122 6.009 1.036 8.433 3.318 1.488 1.401 2.202 3.394 2.202 5.385 0 2.031-.742 4.074-2.213 5.507zm103.106 25.963a1.55 1.55 0 01-.73.638c-.29.132-.63.17-.95.116a1.682 1.682 0 01-.86-.419 1.552 1.552 0 01-.48-.836c-1.94-8.486-5.688-14.799-13.695-18.87-3.939-2.003-8.468-3.276-12.756-4.29-1.246-.295-2.562-.486-3.888-.68-4.155-.606-8.341-1.301-11.05-4.66-1.632-2.023-2.317-4.611-1.93-6.977.365-2.228 1.667-4.271 4.034-5.496 5.892-3.046 13.214-.057 19.165 2.49.441.189.874.374 1.298.553 5.819 2.456 11.126 5.699 15.489 10.335 3.463 3.679 6.673 9.116 7.963 14.71 1.07 4.654.82 9.405-1.61 13.386z" fill="#000"/>
  <defs>
    <filter id="filter0_d" x="0" y="0" width="1745" height="1745" filterUnits="userSpaceOnUse" color-interpolation-filters="sRGB">
      <feFlood flood-opacity="0" result="BackgroundImageFix"/>
      <feColorMatrix in="SourceAlpha" values="0 0 0 0 0 0 0 0 0 0 0 0 0 0 0 0 0 0 127 0"/>
      <feMorphology radius="10" operator="dilate" in="SourceAlpha" result="effect1_dropShadow"/>
      <feOffset/>
      <feGaussianBlur stdDeviation="50"/>
      <feColorMatrix values="0 0 0 0 0.921569 0 0 0 0 0.956863 0 0 0 0 1 0 0 0 1 0"/>
      <feBlend in2="BackgroundImageFix" result="effect1_dropShadow"/>
      <feBlend in="SourceGraphic" in2="effect1_dropShadow" result="shape"/>
    </filter>
  </defs>
</svg>
